<svg width="1156" height="598" viewBox="0 0 1156 598" fill="none" xmlns="http://www.w3.org/2000/svg">
<path opacity="0.45" d="M24.71 464.79C24.71 464.79 343.38 360.25 437.8 318.1C532.22 275.95 597.98 243.91 660.36 198.39C722.75 152.87 817.17 65.19 817.17 65.19L763.22 41.58C763.22 41.58 687.35 100.59 658.68 124.2C630.02 147.81 592.92 191.64 555.83 220.31C518.74 248.97 422.63 313.04 387.22 326.53C351.81 340.02 269.19 373.74 269.19 373.74C269.19 373.74 270.88 361.94 242.21 373.74C213.55 385.54 178.14 404.09 168.02 409.15C157.91 414.21 24.71 464.79 24.71 464.79Z" fill="url(#paint0_linear)"/>
<path opacity="0.45" d="M0.54995 597.99C-3.46005 598.59 172.53 556.4 238.85 539.54C305.17 522.68 335.52 503.57 391.72 492.33C447.92 481.09 504.13 468.72 522.11 461.98C540.09 455.24 553.58 436.13 589.55 424.89C625.52 413.65 805.37 354.07 805.37 354.07C805.37 354.07 784.01 346.2 826.73 323.72C869.44 301.24 898.67 284.38 941.38 264.15C984.09 243.92 1011.07 241.67 1065.03 202.33C1118.98 162.99 1161.7 133.76 1161.7 133.76L1178.56 146.12C1178.56 146.12 1135.85 191.08 1099.88 219.18C1063.91 247.28 1025.69 275.38 964.99 302.36C904.29 329.34 837.97 360.81 823.36 366.43C808.75 372.05 752.54 390.04 752.54 390.04C752.54 390.04 578.31 441.75 560.33 452.99C542.35 464.23 531.1 468.73 531.1 468.73C531.1 468.73 523.23 476.6 514.24 478.85C505.25 481.1 471.53 484.47 471.53 484.47C471.53 484.47 334.4 514.82 324.28 518.19C314.16 521.56 83.7299 585.63 0.54995 597.99Z" fill="url(#paint1_linear)"/>
<path d="M491.4 419.47C491.4 419.47 647.63 391.63 724.46 353.38C724.46 353.38 721.93 346.83 714.03 347.86C706.13 348.89 700.93 352.91 700.93 352.91C700.93 352.91 694.74 348.32 690.43 348.82C686.12 349.32 683.81 352.77 683.81 352.77C683.81 352.77 685.66 330.03 662.42 338.14C639.18 346.25 636.51 371.09 636.51 371.09C636.51 371.09 632.63 363.05 624.62 366.21C616.61 369.38 611.24 376.96 611.24 376.96C611.24 376.96 607.9 372.51 604.27 373.76C600.64 375.01 597.69 377 597.69 377C597.69 377 596.59 356.25 583.49 361.3C570.39 366.35 574.48 384.39 574.48 384.39C574.48 384.39 565.37 381.08 563.77 384.57C562.17 388.06 563.91 395.99 563.91 395.99C563.91 395.99 558.32 393.57 554.62 396.24C550.92 398.91 551.38 403.93 549.25 403.82C549.25 403.82 541.67 398.45 538.57 403.28C535.49 408.13 500.83 416.38 491.4 419.47Z" fill="url(#paint2_linear)"/>
<path d="M143.91 517.7C145.53 517.22 237.41 504.91 279.7 488.19C279.7 488.19 267.61 482.15 261.57 486.76C261.57 486.76 260.1 482.97 256.63 482.84C253.16 482.72 250.13 485.29 250.13 485.29C250.13 485.29 254.26 466.45 237.23 471.74C220.2 477.03 221.02 492.03 221.02 492.03C221.02 492.03 218.48 488.2 213.59 490.43C208.7 492.67 206.11 497.92 206.11 497.92C206.11 497.92 203.25 495.68 201.32 497.22C199.39 498.76 199.08 500.08 199.08 500.08C199.08 500.08 198.76 493.92 193.86 496.42C188.96 498.92 186.02 506.58 186.02 506.58C186.02 506.58 180.37 507.45 174.96 509.4C169.54 511.35 167.36 512.61 167.36 512.61L143.91 517.7Z" fill="url(#paint3_linear)"/>
<path d="M907.94 282.58C907.94 282.58 987.75 261.2 1034.07 233.41C1034.07 233.41 1024.09 239.11 1020.53 248.37C1020.53 248.37 1007.7 255.5 1004.85 261.91C1004.85 261.91 1139.53 203.48 1198.68 157.16C1198.68 157.16 1183.72 152.88 1180.15 154.31C1176.59 155.74 1176.59 137.92 1168.04 130.79C1159.49 123.66 1136.69 132.22 1136.69 132.22C1136.69 132.22 1144.53 85.9 1110.32 90.89C1076.11 95.88 1066.85 127.23 1079.68 159.3C1079.68 159.3 1067.57 155.02 1065.43 164.29C1065.43 164.29 1041.91 143.62 1029.8 163.58C1017.69 183.54 1036.21 206.34 1036.21 206.34C1036.21 206.34 1025.52 202.78 1019.11 207.77C1012.7 212.76 1012.7 220.6 1012.7 220.6C1012.7 220.6 1006.29 201.36 990.61 206.35C974.93 211.34 984.91 239.84 984.91 239.84C984.91 239.84 972.8 232 969.95 236.28C967.1 240.56 967.81 245.54 967.81 245.54C967.81 245.54 957.12 239.13 954.98 246.25C952.84 253.38 954.98 258.36 954.98 258.36C954.98 258.36 944.29 258.36 941.44 263.35C938.59 268.34 932.18 271.19 932.18 271.19L907.94 282.58Z" fill="url(#paint4_linear)"/>
<path d="M376.69 312.51C376.69 312.51 440.11 288.99 492.84 256.21L483.58 266.9C483.58 266.9 555.55 222.72 578.36 210.6C601.16 198.49 628.24 183.52 628.24 173.54C628.24 163.56 625.39 162.14 625.39 162.14C625.39 162.14 695.23 104.42 731.57 63.8C767.91 23.18 771.48 0.380005 771.48 0.380005C771.48 0.380005 738.7 26.03 732.29 28.17C725.88 30.31 712.34 26.74 708.77 32.45C705.21 38.15 696.66 48.13 696.66 48.13C696.66 48.13 685.97 18.2 657.47 33.17C628.97 48.13 615.43 80.91 628.97 107.99C628.97 107.99 616.86 100.86 611.15 108.7C605.45 116.54 606.87 122.24 606.87 122.24C606.87 122.24 599.74 120.1 596.18 124.38C596.18 124.38 580.5 92.31 557.7 109.42C534.9 126.53 536.32 166.43 553.42 189.23C553.42 189.23 539.88 182.1 532.75 186.38C525.62 190.66 524.2 202.06 524.2 202.06C524.2 202.06 519.21 191.37 514.94 193.51C510.66 195.65 507.81 203.49 507.81 203.49C507.81 203.49 506.38 164.3 479.31 181.4C452.24 198.5 450.81 217.74 457.22 242.68C457.22 242.68 450.81 241.97 450.81 249.09C450.81 249.09 440.12 236.98 431.57 247.66C423.02 258.35 428.01 274.03 428.01 274.03C428.01 274.03 418.75 269.75 416.61 276.88C414.47 284.01 411.62 290.42 411.62 290.42C411.62 290.42 402.36 289.71 400.22 294.7C398.07 299.68 376.69 312.51 376.69 312.51Z" fill="url(#paint5_linear)"/>
<path d="M252.7 167.31C252.7 167.31 328.24 130.97 393.8 58.99C393.8 58.99 388.1 51.15 383.82 56.14C379.54 61.13 377.41 68.97 377.41 68.97C377.41 68.97 373.85 67.54 367.43 71.11C367.43 71.11 372.42 49.02 350.33 51.87C328.24 54.72 323.25 81.8 329.66 97.48C329.66 97.48 318.97 91.07 316.83 95.34C314.69 99.62 316.83 105.32 316.83 105.32C316.83 105.32 310.42 94.63 300.44 103.18C290.46 111.73 294.03 135.96 294.03 135.96C294.03 135.96 286.19 128.83 282.63 134.53C279.07 140.23 279.78 145.93 279.78 145.93C279.78 145.93 273.37 144.5 271.23 149.49C269.09 154.49 252.7 167.31 252.7 167.31Z" fill="url(#paint6_linear)"/>
<defs>
<linearGradient id="paint0_linear" x1="800.209" y1="63.9342" x2="147.696" y2="448.361" gradientUnits="userSpaceOnUse">
<stop stop-color="white"/>
<stop offset="1" stop-color="white" stop-opacity="0"/>
</linearGradient>
<linearGradient id="paint1_linear" x1="1052.35" y1="227.027" x2="182.331" y2="562.557" gradientUnits="userSpaceOnUse">
<stop stop-color="white"/>
<stop offset="1" stop-color="white" stop-opacity="0"/>
</linearGradient>
<linearGradient id="paint2_linear" x1="736.653" y1="337.169" x2="537.613" y2="393.539" gradientUnits="userSpaceOnUse">
<stop stop-color="#84D2D4"/>
<stop offset="1" stop-color="#D3F1EF"/>
</linearGradient>
<linearGradient id="paint3_linear" x1="324.202" y1="465.001" x2="183.256" y2="499.325" gradientUnits="userSpaceOnUse">
<stop stop-color="#84D2D4"/>
<stop offset="1" stop-color="#D3F1EF"/>
</linearGradient>
<linearGradient id="paint4_linear" x1="920.3" y1="242.856" x2="1200.35" y2="106.035" gradientUnits="userSpaceOnUse">
<stop stop-color="#D8EAFA"/>
<stop offset="0.6171" stop-color="#9FDDF5"/>
<stop offset="1" stop-color="#7AD9F5"/>
</linearGradient>
<linearGradient id="paint5_linear" x1="426.845" y1="271.434" x2="793.124" y2="-10.0441" gradientUnits="userSpaceOnUse">
<stop stop-color="#D8EAFA"/>
<stop offset="0.6171" stop-color="#9FDDF5"/>
<stop offset="1" stop-color="#7AD9F5"/>
</linearGradient>
<linearGradient id="paint6_linear" x1="389.93" y1="40.3921" x2="270.925" y2="140.869" gradientUnits="userSpaceOnUse">
<stop stop-color="#84D2D4"/>
<stop offset="1" stop-color="#D3F1EF"/>
</linearGradient>
</defs>
</svg>
