<svg width="138" height="138" viewBox="0 0 138 138" fill="none" xmlns="http://www.w3.org/2000/svg">
<g clip-path="url(#clip0)">
<ellipse cx="52.5" cy="52" rx="50.5" ry="50" fill="#00416D"/>
<rect x="86" width="34" height="106" fill="#FF3F3F"/>
<path d="M80.4448 9.0673C71.9112 3.30176 61.9353 0.25444 51.5958 0.25444C23.146 0.25444 0 23.4002 0 51.8503C0 80.3004 23.146 103.446 51.5958 103.446C52.73 103.446 53.6494 102.527 53.6494 101.393C53.6494 100.258 52.7303 99.339 51.5958 99.339C25.4103 99.339 4.10685 78.0355 4.10685 51.85C4.10685 25.6645 25.4106 4.36156 51.5958 4.36156C61.1124 4.36156 70.2932 7.16549 78.146 12.4709C79.0859 13.106 80.3621 12.8585 80.9971 11.9189C81.6319 10.9788 81.385 9.70232 80.4448 9.0673Z" fill="#014E78"/>
<path d="M80.9165 91.8414C80.2831 90.9002 79.0072 90.6504 78.0665 91.2838C72.8389 94.7998 67.0658 97.2032 60.9068 98.4271C59.7944 98.6482 59.0718 99.729 59.2931 100.842C59.4872 101.819 60.3451 102.495 61.3052 102.495C61.4378 102.495 61.5723 102.483 61.7076 102.456C68.403 101.125 74.678 98.5131 80.3589 94.6917C81.2998 94.0589 81.5494 92.7826 80.9165 91.8414Z" fill="#014E78"/>
<path d="M80.771 79.0338C79.9815 78.2196 78.6816 78.1983 77.8673 78.988C70.7824 85.8527 61.465 89.6227 51.6012 89.6227C51.505 89.6227 51.4082 89.6224 51.312 89.6216C41.3307 89.5472 31.9459 85.6182 24.8864 78.5587C17.7524 71.4247 13.8237 61.9394 13.8237 51.85C13.8237 41.7604 17.7527 32.275 24.8864 25.1413C31.9459 18.0831 41.3305 14.155 51.312 14.0806C61.2925 14.0105 70.7137 17.7821 77.8673 24.7125C78.6821 25.5017 79.9818 25.4807 80.7707 24.6662C81.5599 23.8516 81.5394 22.5517 80.7246 21.7625C72.7923 14.0779 62.3399 9.89799 51.281 9.97346C40.2146 10.0559 29.8094 14.4113 21.9822 22.2369C14.0725 30.1465 9.71661 40.6634 9.71661 51.85C9.71661 63.0366 14.0725 73.5535 21.9822 81.4629C29.8091 89.2898 40.2143 93.6459 51.281 93.7284C51.3883 93.7292 51.4942 93.7295 51.6018 93.7295C62.5372 93.7295 72.8694 89.5488 80.7252 81.9372C81.5397 81.1483 81.5602 79.8484 80.771 79.0338Z" fill="white"/>
<path d="M53.6494 49.9301V34.8049C57.9115 35.5552 61.11 38.5899 61.11 42.2108C61.11 43.3449 62.0294 44.2643 63.1636 44.2643C64.2978 44.2643 65.2171 43.3449 65.2171 42.2108C65.2171 36.3622 60.1893 31.5034 53.6494 30.6506V28.7153C53.6494 27.5811 52.73 26.6618 51.5958 26.6618C50.4616 26.6618 49.5423 27.5811 49.5423 28.7153V30.6506C43.0024 31.5031 37.9745 36.3622 37.9745 42.2108C37.9745 48.0593 43.0024 52.9184 49.5423 53.7712V68.8965C45.2805 68.1459 42.0817 65.1112 42.0817 61.4903C42.0817 60.3561 41.1623 59.4368 40.0281 59.4368C38.8939 59.4368 37.9745 60.3561 37.9745 61.4903C37.9745 67.3389 43.0024 72.1977 49.5423 73.0505V74.9858C49.5423 76.1199 50.4616 77.0393 51.5958 77.0393C52.73 77.0393 53.6494 76.1199 53.6494 74.9858V73.0505C60.1893 72.198 65.2171 67.3389 65.2171 61.4903C65.2171 55.6418 60.1893 50.7827 53.6494 49.9301ZM49.5428 49.6169C45.2807 48.8663 42.0822 45.8316 42.0822 42.2108C42.0822 38.5899 45.2807 35.5552 49.5428 34.8046V49.6169ZM53.6494 68.896V54.0836C57.9115 54.8345 61.11 57.8689 61.11 61.4898C61.11 65.1107 57.9115 68.1453 53.6494 68.896Z" fill="white"/>
<path d="M137.856 104.12C137.546 103.336 136.789 102.821 135.946 102.821H123V70.1846C123 69.0504 122.081 68.131 120.946 68.131C119.812 68.131 118.893 69.0504 118.893 70.1846V104.874C118.893 106.008 119.812 106.928 120.946 106.928H130.75L103.043 132.878L75.3367 106.928H85.1403C86.2748 106.928 87.1939 106.008 87.1939 104.874V4.36156H118.893V61.9701C118.893 63.1043 119.812 64.0236 120.946 64.0236C122.081 64.0236 123 63.1043 123 61.9701V2.308C123 1.17381 122.081 0.25444 120.946 0.25444H85.1401C84.0056 0.25444 83.0865 1.17381 83.0865 2.308V102.821H70.1401C69.2973 102.821 68.5399 103.336 68.2302 104.12C67.9205 104.903 68.1213 105.797 68.7361 106.373L101.639 137.191C102.034 137.561 102.539 137.746 103.043 137.746C103.548 137.746 104.052 137.561 104.447 137.191L137.35 106.373C137.965 105.797 138.166 104.903 137.856 104.12Z" fill="#014E78"/>
<path d="M102.5 135L72.6221 105L132.378 105L102.5 135Z" fill="#FF3F3F"/>
</g>
<defs>
<clipPath id="clip0">
<rect width="138" height="138" fill="white"/>
</clipPath>
</defs>
</svg>
