<svg width="140" height="140" viewBox="0 0 140 140" fill="none" xmlns="http://www.w3.org/2000/svg">
<path d="M1.04071 22.0538C1.04071 9.76582 11.0906 -0.174999 23.4194 0.00246166C35.3618 0.17418 45.0723 9.96817 45.1478 21.9114C45.1902 28.5999 42.254 34.6027 37.5886 38.6745C37.0962 39.104 37.1673 39.8882 37.7297 40.221L41.8852 42.6798C42.557 43.0773 42.2751 44.1071 41.4944 44.1071L22.677 44.1025C10.6898 43.8796 1.04071 34.0941 1.04071 22.0538Z" fill="#00416D"/>
<path d="M41.8851 42.6798L37.7294 40.221C37.17 39.8902 37.0923 39.107 37.5821 38.6799C42.3008 34.565 45.2522 28.4747 45.1453 21.6973C44.9602 9.97418 35.4719 0.351101 23.7521 0.00957753C22.0902 -0.0388209 20.4681 0.0970775 18.9049 0.397585C29.0349 2.33954 36.7552 11.2686 36.8224 21.9111C36.855 27.0651 35.1189 31.812 32.186 35.5819C30.415 37.8583 30.9906 41.1592 33.4728 42.6281L33.5598 42.6795C34.2242 43.0727 33.9546 44.0828 33.1937 44.1047L41.4941 44.1066C42.2748 44.1071 42.557 43.0771 41.8851 42.6798Z" fill="#00416D"/>
<path d="M108.498 80.0502H58.4681C45.9725 80.0502 39.1344 65.488 47.1152 55.8729L47.559 55.338C51.0748 51.1022 52.9993 45.7704 52.9993 40.2656V30.6179C52.9996 13.708 66.7075 0 83.6175 0C100.527 0 114.235 13.708 114.235 30.6179V40.5912C114.235 46.1538 116.2 51.5375 119.783 55.7925C127.864 65.3879 121.043 80.0502 108.498 80.0502Z" fill="#C59191"/>
<path d="M134.797 104.844V137.919H32.1699V105.093C32.1699 97.6609 36.6242 90.9535 43.4711 88.0715L60.0387 80.8691L65.6168 78.4437C69.8496 76.6035 72.5867 72.4281 72.5867 67.8125V65.6715H94.377V67.7031C94.377 72.3379 97.1414 76.5297 101.404 78.3562L123.813 87.9621C130.49 90.9207 134.797 97.5379 134.797 104.844Z" fill="white"/>
<path d="M60.0373 88.7551C65.6917 90.4446 74.0143 92.2466 84.1592 92.0691C93.6778 91.9029 101.492 90.052 106.929 88.3154L109.63 81.8822L101.403 78.3562C97.1417 76.5294 94.3783 72.339 94.3783 67.702V65.672H72.5881V67.8125C72.5881 72.4276 69.8504 76.6027 65.6184 78.4429L58.9553 81.34L60.0373 88.7551Z" fill="#FFCEBF"/>
<path d="M123.811 87.9607L106.932 80.7259L106.929 80.7261V137.919H134.797V104.844C134.797 97.539 130.49 90.9204 123.811 87.9607Z" fill="#00416D"/>
<path d="M60.0387 80.8691V137.919H32.1699V105.093C32.1699 97.6609 36.6242 90.9535 43.4711 88.0715L60.0387 80.8691Z" fill="#00416D"/>
<path d="M91.0364 77.6322C93.5432 77.6322 95.932 77.1288 98.1094 76.2204C95.7737 74.0644 94.378 70.9964 94.378 67.7023V65.6723H72.5878V67.8125C72.5878 69.4796 72.2288 71.0888 71.5728 72.5517C74.8724 75.6971 79.3363 77.6319 84.2546 77.6319H91.0364V77.6322Z" fill="#FFB09E"/>
<path d="M105.262 32.8926V50.919C105.262 61.0745 97.029 69.3068 86.8738 69.3068H80.0923C69.9368 69.3068 61.7045 61.0742 61.7045 50.919V32.8926C61.7045 26.2861 67.06 20.9303 73.6668 20.9303H93.2996C99.9061 20.9305 105.262 26.2861 105.262 32.8926Z" fill="#FFCEBF"/>
<path d="M105.262 42.2715C105.253 42.2964 105.243 42.3205 105.236 42.3459C104.571 44.6414 102.827 48.9776 98.6109 52.2285C96.6479 53.7425 94.4087 54.8362 91.9559 55.4799C90.8441 55.7717 90.1791 56.9094 90.4709 58.0212C90.7165 58.9561 91.5595 59.5749 92.4829 59.5749C92.6576 59.5749 92.8353 59.5528 93.0125 59.5063C96.0072 58.7204 98.746 57.3808 101.153 55.525C102.815 54.2431 104.161 52.8273 105.25 51.4038C105.254 51.2424 105.262 51.0819 105.262 50.9195V42.2715H105.262Z" fill="#7A6D79"/>
<path d="M89.6736 61.2333H84.7963C82.5762 61.2333 80.7765 59.4336 80.7765 57.2135C80.7765 54.9935 82.5762 53.1937 84.7963 53.1937H89.6736C91.8936 53.1937 93.6934 54.9935 93.6934 57.2135C93.6931 59.4338 91.8936 61.2333 89.6736 61.2333Z" fill="#685E68"/>
<path d="M87.8284 16.1593C88.2954 10.2695 93.9343 6.36071 99.3311 4.33618C108.259 9.68544 114.235 19.4529 114.235 30.6176V32.7225C113.742 32.8262 113.251 32.917 112.765 32.9894C109.792 33.4335 107.26 33.2413 105.53 32.9894C94.3843 31.5047 87.2643 23.2728 87.8284 16.1593Z" fill="#B98080"/>
<path d="M83.6175 0C90.5321 0 96.9109 2.29305 102.036 6.15918C99.4796 10.6083 93.6083 19.4048 82.5989 25.917C74.4259 30.7516 66.7193 32.3761 61.9735 32.9894H52.9998V30.6176C52.9996 13.708 66.7075 0 83.6175 0V0Z" fill="#C59191"/>
<path d="M117.844 137.919H51.2195L47.5448 103.254C47.2842 100.795 49.2116 98.6521 51.6841 98.6521H117.379C119.852 98.6521 121.779 100.795 121.519 103.254L117.844 137.919Z" fill="#EFEDEF"/>
<path d="M117.379 98.6521H109.054C111.526 98.6521 113.454 100.795 113.193 103.254L109.519 137.919H117.844L121.518 103.254C121.779 100.795 119.852 98.6521 117.379 98.6521Z" fill="#E5E1E5"/>
<path d="M137.949 140H2.05078C0.91793 140 0 139.082 0 137.949C0 136.817 0.91793 135.898 2.05078 135.898H137.949C139.082 135.898 140 136.817 140 137.949C140 139.082 139.082 140 137.949 140Z" fill="#C9BFC8"/>
<path d="M84.5316 124.113C87.75 124.113 90.3591 121.504 90.3591 118.286C90.3591 115.067 87.75 112.458 84.5316 112.458C81.3131 112.458 78.7041 115.067 78.7041 118.286C78.7041 121.504 81.3131 124.113 84.5316 124.113Z" fill="#C9BFC8"/>
<path d="M14.7695 24.1347C15.9188 24.1347 16.8506 23.2029 16.8506 22.0536C16.8506 20.9042 15.9188 19.9724 14.7695 19.9724C13.6201 19.9724 12.6883 20.9042 12.6883 22.0536C12.6883 23.2029 13.6201 24.1347 14.7695 24.1347Z" fill="white"/>
<path d="M23.0945 24.1347C24.2439 24.1347 25.1757 23.2029 25.1757 22.0536C25.1757 20.9042 24.2439 19.9724 23.0945 19.9724C21.9452 19.9724 21.0134 20.9042 21.0134 22.0536C21.0134 23.2029 21.9452 24.1347 23.0945 24.1347Z" fill="white"/>
<path d="M31.4196 24.1347C32.569 24.1347 33.5007 23.2029 33.5007 22.0536C33.5007 20.9042 32.569 19.9724 31.4196 19.9724C30.2702 19.9724 29.3385 20.9042 29.3385 22.0536C29.3385 23.2029 30.2702 24.1347 31.4196 24.1347Z" fill="white"/>
</svg>
