<svg width="766" height="595" viewBox="0 0 766 595" fill="none" xmlns="http://www.w3.org/2000/svg">
<path d="M285.03 155.34L302.47 153.99C302.47 153.99 290.44 163.86 285.08 163.69L285.03 155.34Z" fill="url(#paint0_linear)"/>
<path d="M286.09 159.5C286.1 161.81 285.65 163.68 285.08 163.68C284.51 163.68 284.03 161.82 284.02 159.51C284.01 157.2 284.46 155.33 285.03 155.33C285.6 155.33 286.07 157.2 286.09 159.5Z" fill="url(#paint1_linear)"/>
<path d="M423.19 147.88L371.25 142.27L371.46 156.27L372.02 192.13L545.47 201.03V159.76L423.19 147.88Z" fill="url(#paint2_linear)"/>
<path d="M560.18 65.95C560.18 65.95 527.24 65.71 504.7 61.78L509.17 68.8L548.67 72.82L560.17 72.22C560.78 72.27 561.37 71.1 561.51 69.21C561.67 67.32 560.8 66 560.18 65.95Z" fill="url(#paint3_linear)"/>
<path d="M381.53 68.48V111.12L371.5 117.3L323.24 147.05V113.28L381.53 68.48Z" fill="url(#paint4_linear)"/>
<path d="M381.53 68.48V111.12L371.5 117.3L323.24 117.88V113.28L381.53 68.48Z" fill="url(#paint5_linear)"/>
<path d="M372.28 107.76L372.04 96.31L368.1 98.52L368.33 109.98L372.28 107.76Z" fill="url(#paint6_linear)"/>
<path d="M372.04 96.31L372.05 96.84L368.5 98.84L368.1 98.52L372.04 96.31Z" fill="url(#paint7_linear)"/>
<path d="M368.33 109.98L368.72 109.76L368.5 98.84L368.1 98.52L368.33 109.98Z" fill="url(#paint8_linear)"/>
<path d="M364.71 112L364.48 100.55L360.53 102.76L360.77 114.22L364.71 112Z" fill="url(#paint9_linear)"/>
<path d="M364.48 100.55L364.49 101.08L360.93 103.08L360.53 102.76L364.48 100.55Z" fill="url(#paint10_linear)"/>
<path d="M360.77 114.22L361.16 114L360.93 103.08L360.53 102.76L360.77 114.22Z" fill="url(#paint11_linear)"/>
<path d="M357.14 116.24L356.91 104.78L352.97 107L353.2 118.46L357.14 116.24Z" fill="url(#paint12_linear)"/>
<path d="M356.91 104.78L356.92 105.32L353.37 107.32L352.97 107L356.91 104.78Z" fill="url(#paint13_linear)"/>
<path d="M353.2 118.46L353.59 118.24L353.37 107.32L352.97 107L353.2 118.46Z" fill="url(#paint14_linear)"/>
<path d="M349.58 120.48L349.34 109.02L345.4 111.24L345.64 122.7L349.58 120.48Z" fill="url(#paint15_linear)"/>
<path d="M349.34 109.02L349.35 109.56L345.8 111.55L345.4 111.24L349.34 109.02Z" fill="url(#paint16_linear)"/>
<path d="M345.64 122.7L346.02 122.48L345.8 111.55L345.4 111.24L345.64 122.7Z" fill="url(#paint17_linear)"/>
<path d="M342.01 124.72L341.78 113.26L337.84 115.48L338.07 126.94L342.01 124.72Z" fill="url(#paint18_linear)"/>
<path d="M341.78 113.26L341.79 113.79L338.24 115.79L337.84 115.48L341.78 113.26Z" fill="url(#paint19_linear)"/>
<path d="M338.07 126.94L338.46 126.72L338.24 115.79L337.84 115.48L338.07 126.94Z" fill="url(#paint20_linear)"/>
<path d="M334.45 128.96L334.21 117.5L330.27 119.72L330.5 131.18L334.45 128.96Z" fill="url(#paint21_linear)"/>
<path d="M334.21 117.5L334.22 118.03L330.67 120.03L330.27 119.72L334.21 117.5Z" fill="url(#paint22_linear)"/>
<path d="M330.5 131.18L330.89 130.96L330.67 120.03L330.27 119.72L330.5 131.18Z" fill="url(#paint23_linear)"/>
<path d="M381.53 100.52L380.72 71.77L381.52 73.54L381.53 100.52Z" fill="url(#paint24_linear)"/>
<path d="M511.35 86.07V124.07L381.53 111.12V68.48L511.35 86.07Z" fill="url(#paint25_linear)"/>
<path opacity="0.8" d="M511.35 87.2V124.07L492.87 122.23L483.72 121.32L392.12 101.82L381.53 107.35V68.48L454.86 78.42L511.35 87.2Z" fill="url(#paint26_linear)"/>
<path d="M397.64 99.67L404.2 100.47L404.73 89.93L398.17 89.13L397.64 99.67Z" fill="url(#paint27_linear)"/>
<path d="M404.73 89.93L405.33 89.43L404.77 100.54L404.2 100.47L404.73 89.93Z" fill="url(#paint28_linear)"/>
<path d="M398.17 89.13L398.2 88.56L405.33 89.43L404.73 89.93L398.17 89.13Z" fill="url(#paint29_linear)"/>
<path d="M416.57 101.98L423.13 102.78L423.66 92.24L417.09 91.44L416.57 101.98Z" fill="url(#paint30_linear)"/>
<path d="M423.66 92.24L424.26 91.74L423.7 102.85L423.13 102.78L423.66 92.24Z" fill="url(#paint31_linear)"/>
<path d="M417.09 91.44L417.12 90.87L424.26 91.74L423.66 92.24L417.09 91.44Z" fill="url(#paint32_linear)"/>
<path d="M435.49 104.28L442.05 105.08L442.58 94.55L436.02 93.75L435.49 104.28Z" fill="url(#paint33_linear)"/>
<path d="M442.58 94.55L443.18 94.05L442.62 105.15L442.05 105.08L442.58 94.55Z" fill="url(#paint34_linear)"/>
<path d="M436.02 93.75L436.05 93.18L443.18 94.05L442.58 94.55L436.02 93.75Z" fill="url(#paint35_linear)"/>
<path d="M454.41 106.59L460.97 107.39L461.5 96.85L454.94 96.05L454.41 106.59Z" fill="url(#paint36_linear)"/>
<path d="M461.5 96.85L462.1 96.36L461.54 107.46L460.97 107.39L461.5 96.85Z" fill="url(#paint37_linear)"/>
<path d="M454.94 96.05L454.97 95.49L462.1 96.36L461.5 96.85L454.94 96.05Z" fill="url(#paint38_linear)"/>
<path d="M473.34 108.9L479.9 109.7L480.42 99.16L473.86 98.36L473.34 108.9Z" fill="url(#paint39_linear)"/>
<path d="M480.42 99.16L481.02 98.66L480.47 109.77L479.9 109.7L480.42 99.16Z" fill="url(#paint40_linear)"/>
<path d="M473.86 98.36L473.89 97.79L481.02 98.66L480.42 99.16L473.86 98.36Z" fill="url(#paint41_linear)"/>
<path d="M492.26 111.21L498.82 112.01L499.35 101.47L492.79 100.67L492.26 111.21Z" fill="url(#paint42_linear)"/>
<path d="M499.35 101.47L499.95 100.97L499.39 112.08L498.82 112.01L499.35 101.47Z" fill="url(#paint43_linear)"/>
<path d="M492.79 100.67L492.82 100.1L499.95 100.97L499.35 101.47L492.79 100.67Z" fill="url(#paint44_linear)"/>
<path d="M500.85 68.88L424.39 55.22L392.11 49.46C392.11 49.46 441.09 27.78 450.44 16.69L456.8 23.27L500.85 68.88Z" fill="url(#paint45_linear)"/>
<path d="M420.11 55.22C420.11 55.22 437.56 47.05 447.52 38.7C447.52 38.7 462.13 58.61 470.96 63.59L420.11 55.22Z" fill="url(#paint46_linear)"/>
<path opacity="0.8" d="M456.8 23.27C448.76 35.08 433.04 48.36 424.4 55.21L392.12 49.45C392.12 49.45 441.1 27.77 450.45 16.68L456.8 23.27Z" fill="url(#paint47_linear)"/>
<path d="M452.66 19.95C452.66 19.95 469.2 51.86 500.86 68.89L516.4 71.62C516.4 71.62 465.82 38.86 454.86 16.7L452.66 19.95Z" fill="url(#paint48_linear)"/>
<path d="M452.66 7.38L431.79 22.96L402.24 38.7L380.08 45.31L394.53 50.1C418.59 44.52 439.98 27.52 448.6 19.94C449.02 22.43 450.61 24.28 452.51 24.28C454.1 24.28 455.47 22.97 456.12 21.09C480.57 54.48 508.37 70 508.37 70H525.23C482.2 55.56 452.66 7.38 452.66 7.38Z" fill="url(#paint49_linear)"/>
<path d="M451.81 0.280029L379.59 39.82L383.23 41.6L416.49 28.67L452.66 7.38003L451.81 0.280029Z" fill="url(#paint50_linear)"/>
<path d="M454.86 3.68999C454.86 1.64999 453.87 0 452.65 0C451.43 0 450.44 1.64999 450.44 3.68999C450.44 5.72999 451.43 7.38 452.65 7.38C453.87 7.38 454.86 5.72999 454.86 3.68999Z" fill="url(#paint51_linear)"/>
<path d="M388.43 45.31C388.43 45.31 429.38 38.06 452.66 7.39001L372.29 47.53L388.43 45.31Z" fill="url(#paint52_linear)"/>
<path d="M368.29 32.54L388.42 39.34C388.42 39.34 390.67 41.64 388.42 45.3L370.31 41.58L368.35 39.33L368.29 32.54Z" fill="url(#paint53_linear)"/>
<path d="M370.3 35.74C370.45 37.63 369.58 39.24 368.36 39.34C367.13 39.44 366.01 37.99 365.86 36.1C365.71 34.21 366.58 32.6 367.8 32.5C369.02 32.4 370.14 33.85 370.3 35.74Z" fill="url(#paint54_linear)"/>
<path d="M301.04 102.6L312.39 101.72C312.39 101.72 304.56 108.14 301.07 108.03L301.04 102.6Z" fill="url(#paint55_linear)"/>
<path d="M301.73 105.31C301.74 106.81 301.44 108.03 301.07 108.03C300.7 108.03 300.39 106.82 300.38 105.32C300.37 103.82 300.67 102.6 301.04 102.6C301.42 102.6 301.72 103.81 301.73 105.31Z" fill="url(#paint56_linear)"/>
<path d="M560.18 72.22L557.95 78.12L518.18 81.49L374.98 53.79C374.98 53.79 314.08 107.75 301.79 113.04L301.07 108.04C301.07 108.04 346.75 70.82 368.36 39.35C368.36 39.35 380.12 43.43 401.96 48.81C434.34 56.77 488.91 67.61 560.18 72.22Z" fill="url(#paint57_linear)"/>
<path d="M369.28 40.4L369.96 42.15L368.75 40.38C336.07 82.83 301.72 108.03 301.72 108.03L301.78 113.03L301.06 108.03C301.06 108.03 346.74 70.81 368.35 39.34C368.35 39.34 380.11 43.42 401.95 48.8L402.02 48.82C394.88 48.2 370.06 40.62 369.28 40.4Z" fill="white"/>
<path d="M557.95 78.12L511.35 91.12L507.97 90.66L471.41 85.71L471.05 85.66L467.3 85.16H467.29L466.74 85.09L432.7 80.47L430.39 80.16L428.87 79.96L425.47 79.5L383.05 73.75L381.53 73.54L379.58 75L361.32 88.66L360.71 89.11L359.19 90.24L358.08 91.07L342.43 102.77L341.82 103.23L341.37 103.57L339.3 105.11L326.2 114.92L325.68 115.31L324.75 116.01L323.24 117.14L301.8 113.05C302.75 112.4 303.74 111.68 304.79 110.9C305.06 110.7 305.34 110.49 305.61 110.28C305.95 110.02 306.29 109.76 306.64 109.48C310.81 106.28 315.59 102.3 320.6 97.91C321.55 97.09 322.49 96.25 323.45 95.4C323.7 95.18 323.96 94.95 324.22 94.72C324.57 94.41 324.92 94.1 325.28 93.77C330.81 88.84 336.5 83.58 341.96 78.44C342.3 78.13 342.63 77.82 342.96 77.51C343.89 76.63 344.8 75.76 345.71 74.9C345.86 74.76 346.01 74.63 346.15 74.49C356.33 64.8 365.16 56.07 369.62 51.63C371.59 49.68 372.71 48.56 372.71 48.56C374.02 48.95 375.32 49.33 376.63 49.7C394.49 54.81 413.07 59.05 431.21 62.53C432.02 62.69 432.83 62.85 433.62 63C435.34 63.32 437.04 63.63 438.75 63.95C439.19 64.04 439.61 64.11 440.03 64.19C453.32 66.59 466.26 68.61 478.42 70.29C478.61 70.31 478.79 70.34 478.98 70.36H478.99C481.22 70.67 483.41 70.96 485.56 71.24H485.57C485.69 71.25 485.81 71.28 485.93 71.29C515.19 75.11 539.03 76.95 550.52 77.71H550.53C555.31 77.99 557.95 78.12 557.95 78.12Z" fill="url(#paint58_linear)"/>
<path d="M361.32 88.66L360.71 89.11L359.19 90.24L342.95 77.48C343.88 76.6 344.79 75.73 345.7 74.87C345.85 74.73 346 74.6 346.14 74.46L361.32 88.66Z" fill="url(#paint59_linear)"/>
<path d="M324.74 94.22C324.57 94.38 324.39 94.53 324.22 94.69C323.96 94.93 323.7 95.15 323.45 95.37L341.37 103.56L341.82 103.22L342.21 102.93L324.74 94.22Z" fill="url(#paint60_linear)"/>
<path d="M326.2 114.91L325.68 115.3L324.75 116L304.79 110.89C305.06 110.69 305.34 110.48 305.61 110.27C305.95 110.01 306.29 109.75 306.64 109.47L326.2 114.91Z" fill="url(#paint61_linear)"/>
<path opacity="0.75" d="M557.95 78.12L511.35 91.12L507.97 90.66L471.41 85.71L471.05 85.66L467.3 85.16H467.29L466.74 85.09L432.7 80.47L431.9 80.36L430.38 80.16L428.86 79.96H428.85L425.47 79.5L384.23 73.91L383.05 73.75L382.14 73.63L373.27 48.69C374.39 49.03 375.5 49.35 376.62 49.67C377.25 49.86 377.89 50.03 378.52 50.21C395.79 55.09 413.7 59.15 431.2 62.5C432.01 62.66 432.82 62.82 433.61 62.97C434.12 63.07 434.63 63.16 435.13 63.26C436.34 63.48 437.54 63.7 438.74 63.92C439.18 64.01 439.6 64.08 440.02 64.16C440.13 64.18 440.26 64.2 440.37 64.22C453.54 66.6 466.37 68.59 478.41 70.26C478.6 70.28 478.78 70.31 478.97 70.33H478.98C481.21 70.64 483.4 70.93 485.55 71.21H485.56C485.68 71.22 485.8 71.25 485.92 71.26C515.18 75.08 539.02 76.92 550.51 77.68H550.52C555.31 77.99 557.95 78.12 557.95 78.12Z" fill="url(#paint62_linear)"/>
<path d="M384.23 73.91L383.05 73.75L382.14 73.63L373.27 48.69C374.39 49.03 375.5 49.35 376.62 49.67C377.25 49.86 377.89 50.03 378.52 50.21L384.23 73.91Z" fill="url(#paint63_linear)"/>
<path d="M440.36 64.22L431.9 80.36L430.38 80.16L428.86 79.96H428.85L435.12 63.26C436.33 63.48 437.53 63.7 438.73 63.92C439.17 64.01 439.59 64.08 440.01 64.16C440.13 64.18 440.25 64.19 440.36 64.22Z" fill="url(#paint64_linear)"/>
<path d="M383.04 73.75L381.52 73.54L379.57 75L369.6 51.6C371.57 49.65 372.69 48.53 372.69 48.53C374 48.92 375.3 49.3 376.61 49.67L383.04 73.75Z" fill="url(#paint65_linear)"/>
<path d="M325.68 115.3L323.24 117.13L301.8 113.04C302.99 112.22 304.26 111.29 305.61 110.26L325.68 115.3Z" fill="url(#paint66_linear)"/>
<path d="M557.95 78.12L511.35 91.12L507.97 90.66L550.52 77.68H550.53C555.31 77.99 557.95 78.12 557.95 78.12Z" fill="url(#paint67_linear)"/>
<path d="M341.82 103.23L339.31 105.11L320.61 97.89C321.8 96.84 323.01 95.79 324.23 94.69L341.82 103.23Z" fill="url(#paint68_linear)"/>
<path d="M360.71 89.11L358.08 91.08L341.95 78.42C343.22 77.23 344.46 76.04 345.7 74.87L360.71 89.11Z" fill="url(#paint69_linear)"/>
<path d="M438.73 63.92L430.38 80.16L428.86 79.96L425.46 79.5L431.18 62.5C431.99 62.66 432.8 62.82 433.59 62.97C435.32 63.3 437.03 63.61 438.73 63.92Z" fill="url(#paint70_linear)"/>
<path d="M485.92 71.26L471.4 85.71L471.04 85.66L467.29 85.16H467.28L466.73 85.09L478.4 70.26C478.59 70.28 478.77 70.31 478.96 70.33H478.97C481.2 70.64 483.39 70.93 485.54 71.21H485.55C485.68 71.22 485.8 71.25 485.92 71.26Z" fill="url(#paint71_linear)"/>
<path d="M586.25 246.96V312.95L512.39 308.44V239.78L540.03 242.47L586.25 246.96Z" fill="url(#paint72_linear)"/>
<path d="M512.39 253.07V253.69L586.25 258.96V258.34L512.39 253.07ZM512.39 294.99L586.25 300.26V299.64L512.39 294.37V294.99Z" fill="#5D7CC2"/>
<path d="M546.11 281.89L553.14 282.39V271.13L546.11 270.63V281.89Z" fill="url(#paint73_linear)"/>
<path d="M553.14 271.13L553.76 270.57V282.44L553.14 282.39V271.13Z" fill="url(#paint74_linear)"/>
<path d="M546.11 270.63V270.02L553.76 270.57L553.14 271.13L546.11 270.63Z" fill="url(#paint75_linear)"/>
<path d="M566.8 283.37L573.84 283.87V272.61L566.8 272.1V283.37Z" fill="url(#paint76_linear)"/>
<path d="M573.84 272.61L574.45 272.04V283.91L573.84 283.87V272.61Z" fill="url(#paint77_linear)"/>
<path d="M566.8 272.1V271.5L574.45 272.04L573.84 272.61L566.8 272.1Z" fill="url(#paint78_linear)"/>
<path d="M632.83 220.64C632.83 220.64 594.17 214.75 545.47 195.19V203.4L566.34 213.7L609.21 228.16C609.21 228.16 630.85 229.14 632.33 228.16C632.93 228 633.97 226.47 634.11 224.39C634.25 222.33 633.95 220.7 632.83 220.64Z" fill="url(#paint79_linear)"/>
<path d="M545.47 201.03C545.47 201.03 577.41 220.37 632.33 228.17C632.33 228.17 619.25 232.75 612.02 233.71C604.79 234.67 520.53 228.39 520.53 228.39L507.78 197.16H536.15L545.47 201.03Z" fill="url(#paint80_linear)"/>
<path d="M525.94 223.35C525.94 223.35 589.63 232.74 632.33 228.17L621.9 237.26C621.9 237.26 603.11 242.62 591.91 241.17C580.71 239.72 528.93 233.7 528.93 233.7L525.94 223.35Z" fill="url(#paint81_linear)"/>
<path d="M621.9 237.27L586.25 246.96L582.08 246.55L540.03 242.47L531.83 233.71C531.83 233.71 581.66 239.06 610.43 238.17C614.83 238.03 618.74 237.74 621.9 237.27Z" fill="url(#paint82_linear)"/>
<path d="M621.9 237.27L586.25 246.96L582.08 246.55L610.43 238.16C614.83 238.03 618.74 237.74 621.9 237.27Z" fill="url(#paint83_linear)"/>
<path d="M586.25 246.96V258.95L546.75 248.77L546.51 309.94L538.56 308.76L540.03 242.47L586.25 246.96Z" fill="url(#paint84_linear)"/>
<path opacity="0.8" d="M371.46 156.27L371.58 164.03L377.96 159.32L545.47 201.03L545.26 164.34L371.25 142.27L371.46 156.27Z" fill="url(#paint85_linear)"/>
<path d="M371.28 144.36L529.2 176.86L538.67 200.68L545.47 201.03V159.76L423.19 147.88L421.94 147.75L371.28 144.36Z" fill="url(#paint86_linear)"/>
<path d="M383.15 174.9L390.12 175.39V164.23L383.15 163.73V174.9Z" fill="url(#paint87_linear)"/>
<path d="M390.12 164.23L390.73 163.67V175.44L390.12 175.39V164.23Z" fill="url(#paint88_linear)"/>
<path d="M383.15 163.73V163.13L390.73 163.67L390.12 164.23L383.15 163.73Z" fill="url(#paint89_linear)"/>
<path d="M403.66 176.36L410.63 176.86V165.69L403.66 165.2V176.36Z" fill="url(#paint90_linear)"/>
<path d="M410.63 165.69L411.24 165.13V176.9L410.63 176.86V165.69Z" fill="url(#paint91_linear)"/>
<path d="M403.66 165.2V164.59L411.24 165.13L410.63 165.69L403.66 165.2Z" fill="url(#paint92_linear)"/>
<path d="M426.39 177.25L433.1 177.73V167L426.39 166.52V177.25Z" fill="url(#paint93_linear)"/>
<path d="M433.1 167L433.68 166.46V177.77L433.1 177.73V167Z" fill="url(#paint94_linear)"/>
<path d="M426.39 166.52V165.94L433.68 166.46L433.1 167L426.39 166.52Z" fill="url(#paint95_linear)"/>
<path d="M447.41 178.63L454.11 179.11V168.38L447.41 167.9V178.63Z" fill="url(#paint96_linear)"/>
<path d="M454.11 168.38L454.7 167.84V179.15L454.11 179.11V168.38Z" fill="url(#paint97_linear)"/>
<path d="M447.41 167.9V167.32L454.7 167.84L454.11 168.38L447.41 167.9Z" fill="url(#paint98_linear)"/>
<path d="M466.74 180.01L473.45 180.49V169.76L466.74 169.28V180.01Z" fill="url(#paint99_linear)"/>
<path d="M473.45 169.76L474.03 169.22V180.53L473.45 180.49V169.76Z" fill="url(#paint100_linear)"/>
<path d="M466.74 169.28V168.7L474.03 169.22L473.45 169.76L466.74 169.28Z" fill="url(#paint101_linear)"/>
<path d="M486.08 181.39L492.79 181.87V171.14L486.08 170.66V181.39Z" fill="url(#paint102_linear)"/>
<path d="M492.79 171.14L493.37 170.6V181.91L492.79 181.87V171.14Z" fill="url(#paint103_linear)"/>
<path d="M486.08 170.66V170.08L493.37 170.6L492.79 171.14L486.08 170.66Z" fill="url(#paint104_linear)"/>
<path d="M507.9 183.17L514.6 183.64V172.92L507.9 172.44V183.17Z" fill="url(#paint105_linear)"/>
<path d="M514.6 172.92L515.19 172.38V183.69L514.6 183.64V172.92Z" fill="url(#paint106_linear)"/>
<path d="M507.9 172.44V171.86L515.19 172.38L514.6 172.92L507.9 172.44Z" fill="url(#paint107_linear)"/>
<path d="M590.12 138.99C590.12 138.99 560.17 137.4 511.35 117.76V124.07L511.37 124.08L511.35 124.07L381.53 108.49C370.93 112.58 349.49 114.84 349.49 114.84L371.25 126.04L516.53 148.39L516.3 147.32C536.99 149.5 565.3 152.35 568.91 152.05C574.09 151.62 586.62 147.51 589.16 146.66C589.37 146.62 589.53 146.57 589.62 146.51C590.22 146.35 591.26 144.82 591.4 142.74C591.54 140.68 591.24 139.06 590.12 138.99Z" fill="url(#paint108_linear)"/>
<path d="M589.98 146.29C590.57 145.77 591.28 144.46 591.4 142.75C591.54 140.67 591.24 139.05 590.12 138.99C590.12 138.99 560.17 137.4 511.35 117.76V124.07C511.35 124.07 544.7 141.3 589.63 146.52L589.98 146.29Z" fill="url(#paint109_linear)"/>
<path d="M591.4 142.58C591.2 144.55 590.56 146.53 589.62 146.53C588.68 146.53 587.88 144.74 587.88 142.77C587.88 140.79 589.18 139.01 590.12 139.01C591.06 138.99 591.61 140.48 591.4 142.58Z" fill="url(#paint110_linear)"/>
<path d="M371.83 179.52L372.02 143.63L371.28 144.35L371.83 179.52Z" fill="white"/>
<path d="M372.02 208.73L312.4 234.2V174.88L371.25 142.27L371.42 153.24L371.43 153.95L371.69 171.01L371.87 182.23L371.88 182.94L372.02 208.73Z" fill="url(#paint111_linear)"/>
<path d="M371.69 171.01L312.4 181.87V174.88L371.25 142.27L371.42 153.24L371.43 153.95L371.69 171.01Z" fill="url(#paint112_linear)"/>
<path d="M371.43 153.95L312.4 184.18V183.46L371.42 153.24L371.43 153.95Z" fill="#A7B5DC"/>
<path d="M371.88 182.94L312.4 213.08V212.37L371.87 182.23L371.88 182.94Z" fill="#A7B5DC"/>
<path d="M545.47 195.89V195.25L371.69 181.91L371.7 182.54L545.47 195.89Z" fill="#7C97DD"/>
<path d="M545.47 169.42V168.8L372.02 152.93L372.03 153.55L545.47 169.42Z" fill="#5D7CC2"/>
<path d="M527.59 185.21L534.06 185.67V175.31L527.59 174.85V185.21Z" fill="url(#paint113_linear)"/>
<path d="M534.06 175.31L534.63 174.79V185.71L534.06 185.67V175.31Z" fill="url(#paint114_linear)"/>
<path d="M527.59 174.85V174.29L534.63 174.79L534.06 175.31L527.59 174.85Z" fill="url(#paint115_linear)"/>
<path d="M349.48 114.85C340.82 131.95 284.71 163.68 284.71 163.68L293.86 167.18L359.13 128.58L512.39 157.05L558.63 156.91L582.64 153.02L589.62 146.52C529.4 147.36 349.48 114.85 349.48 114.85Z" fill="url(#paint116_linear)"/>
<path d="M582.64 153.02L545.47 164.34L542.28 164.05L572.64 153.91C578.87 153.49 582.64 153.02 582.64 153.02Z" fill="url(#paint117_linear)"/>
<path d="M352.7 119.54L349.73 115.84C335.72 140.05 285.94 163.64 285.94 163.64L286.33 164.3L284.7 163.68C284.7 163.68 340.81 131.95 349.47 114.85L352.7 119.54Z" fill="white"/>
<path d="M572.65 153.92C558.5 154.88 379.44 132.64 356.8 126.06C356.8 126.06 294.39 166.88 293.85 167.19L312.39 174.89L371.27 144.36L425.68 150.62L542.28 164.06L545.47 164.35L582.64 153.03C582.64 153.02 578.87 153.49 572.65 153.92Z" fill="url(#paint118_linear)"/>
<path d="M572.65 153.92C558.5 154.88 379.44 132.64 356.8 126.06C356.8 126.06 294.39 166.88 293.85 167.19L312.39 174.89L371.27 144.36L425.68 150.62L542.28 164.06L545.47 164.35L582.64 153.03C582.64 153.02 578.87 153.49 572.65 153.92Z" fill="url(#paint119_linear)"/>
<path d="M332.03 164.7L334.45 163.44L318.25 151.24C317.19 151.94 316.13 152.62 315.1 153.3L332.03 164.7Z" fill="url(#paint120_linear)"/>
<path opacity="0.75" d="M438.1 137.82C423.15 136.39 375.74 131.56 356.8 126.05C356.8 126.05 356.77 126.08 356.72 126.12L370.98 144.52L371.28 144.35L423.57 150.37L438.1 137.82Z" fill="url(#paint121_linear)"/>
<path d="M401.74 147.86L405.28 148.27L401.87 133.87C399.41 133.51 397.02 133.16 394.7 132.81L401.74 147.86Z" fill="url(#paint122_linear)"/>
<path d="M362.21 127.44C360.23 126.98 358.41 126.52 356.8 126.05C356.8 126.05 356.78 126.07 356.76 126.09L370.42 144.84L371.28 144.36L374.02 144.67L362.21 127.44Z" fill="url(#paint123_linear)"/>
<path d="M355.48 127.24L369.6 145.29L371.27 144.35L373.07 144.56L360.32 126.99C359.06 126.68 357.88 126.37 356.8 126.05C356.8 126.05 356.32 126.49 355.48 127.24Z" fill="url(#paint124_linear)"/>
<path d="M315.01 173.42L314.49 173.72L313.11 174.49L295.65 166.04C295.96 165.83 296.27 165.6 296.61 165.37C297.01 165.08 297.42 164.79 297.84 164.47C302.03 166.63 311.08 171.36 315.01 173.42Z" fill="url(#paint125_linear)"/>
<path d="M314.49 173.71L312.4 174.88L293.86 167.18C294.64 166.72 295.56 166.11 296.61 165.36L314.49 173.71Z" fill="url(#paint126_linear)"/>
<path d="M347.79 146.91L347.28 146.38L340.26 139.23C339.82 138.75 339.35 138.25 338.9 137.76C337.79 138.48 336.66 139.22 335.51 139.98L343.69 147.67L343.91 147.88L351.21 154.76L354.08 153.27L347.79 146.91Z" fill="url(#paint127_linear)"/>
<path d="M346.5 146.99L346.02 146.5L339.48 139.84C339.02 139.34 338.53 138.81 338.06 138.31C337.18 138.89 336.28 139.47 335.37 140.07C335.24 140.18 335.1 140.3 334.94 140.43L342.67 147.7L342.87 147.9L350.52 155.12L353.15 153.76L346.5 146.99Z" fill="url(#paint128_linear)"/>
<path d="M326.29 158.46L325.78 158.09L317.52 151.74C316.58 152.35 314.32 153.83 314.32 153.83L322.79 159.39L323 159.53L331.37 165.05L333.76 163.81L326.29 158.46Z" fill="url(#paint129_linear)"/>
<path d="M382.79 104.84C382.5 102.97 381.27 101.6 380.06 101.79C379.9 101.82 379.75 101.87 379.6 101.94C368.92 105.58 348 108.14 348 108.14L349.48 114.84C349.48 114.84 358.27 113.98 360.77 113.95C363.27 113.93 380.19 111.05 380.19 111.05L381.12 108.56C382.34 108.38 383.09 106.71 382.79 104.84Z" fill="url(#paint130_linear)"/>
<path d="M350.92 111.01C351.33 112.86 350.69 114.58 349.49 114.84C348.29 115.11 346.98 113.82 346.57 111.97C346.16 110.12 346.8 108.4 348 108.14C349.21 107.88 350.51 109.16 350.92 111.01Z" fill="url(#paint131_linear)"/>
<path d="M364.11 176.28V163.39L359.63 165.79V178.69L364.11 176.28Z" fill="url(#paint132_linear)"/>
<path d="M364.11 163.39V163.99L360.07 166.16L359.63 165.79L364.11 163.39Z" fill="url(#paint133_linear)"/>
<path d="M359.63 178.69L360.07 178.45V166.16L359.63 165.79V178.69Z" fill="url(#paint134_linear)"/>
<path d="M354.95 180.68V167.79L350.46 170.19V183.09L354.95 180.68Z" fill="url(#paint135_linear)"/>
<path d="M354.95 167.79V168.39L350.9 170.55L350.46 170.19L354.95 167.79Z" fill="url(#paint136_linear)"/>
<path d="M350.46 183.09L350.9 182.85V170.55L350.46 170.19V183.09Z" fill="url(#paint137_linear)"/>
<path d="M345.04 184.54V173.11L341.06 175.24V186.67L345.04 184.54Z" fill="url(#paint138_linear)"/>
<path d="M345.04 173.11V173.64L341.46 175.57L341.06 175.24L345.04 173.11Z" fill="url(#paint139_linear)"/>
<path d="M341.06 186.67L341.46 186.46V175.57L341.06 175.24V186.67Z" fill="url(#paint140_linear)"/>
<path d="M336.22 188.61V177.19L332.24 179.32V190.74L336.22 188.61Z" fill="url(#paint141_linear)"/>
<path d="M336.22 177.19V177.72L332.63 179.64L332.24 179.32L336.22 177.19Z" fill="url(#paint142_linear)"/>
<path d="M332.24 190.74L332.63 190.53V179.64L332.24 179.32V190.74Z" fill="url(#paint143_linear)"/>
<path d="M327.99 191.8V181.64L324.46 183.53V193.7L327.99 191.8Z" fill="url(#paint144_linear)"/>
<path d="M327.99 181.64V182.11L324.81 183.82L324.46 183.53L327.99 181.64Z" fill="url(#paint145_linear)"/>
<path d="M324.46 193.7L324.81 193.51V183.82L324.46 183.53V193.7Z" fill="url(#paint146_linear)"/>
<path d="M320.22 195.65V185.49L316.68 187.38V197.55L320.22 195.65Z" fill="url(#paint147_linear)"/>
<path d="M320.22 185.49V185.96L317.03 187.67L316.68 187.38L320.22 185.49Z" fill="url(#paint148_linear)"/>
<path d="M316.68 197.55L317.03 197.36V187.67L316.68 187.38V197.55Z" fill="url(#paint149_linear)"/>
<path opacity="0.6" d="M519.3 210.51L495.53 201.03H491.99L485.73 197.16L500.28 174.67L535.47 201.83L519.09 201.03L519.3 210.51Z" fill="url(#paint150_linear)"/>
<path d="M281.57 229.62L268.29 221.59L248.41 274.09H272.98L281.57 229.62Z" fill="url(#paint151_linear)"/>
<path d="M337.68 246.48V316.56L313.12 320.18L313.78 286.21L314.56 246.48H337.68Z" fill="url(#paint152_linear)"/>
<path opacity="0.8" d="M337.68 246.48V281.62L318.42 274.09L313.78 286.21L314.56 246.48H337.68Z" fill="url(#paint153_linear)"/>
<path d="M313.26 312.77L315.33 247.58L314.51 249.34L313.26 312.77Z" fill="white"/>
<path d="M314.56 246.48L313.39 306.22L313.12 320.18L264.71 339.93L268.07 277.3L268.3 273.21L281.56 229.61L314.56 246.48Z" fill="url(#paint154_linear)"/>
<path d="M291.75 269.11L267.81 282.2L267.77 282.94L291.74 269.84L314.35 257.48L314.36 256.75L291.75 269.11ZM265.54 324.51L265.5 325.25L290.08 311.81L313.53 298.99L313.54 298.26L290.09 311.08L265.54 324.51Z" fill="#A7B5DC"/>
<path d="M314.56 246.48L313.39 306.22L268.07 277.3L268.3 273.21L281.56 229.61L314.56 246.48Z" fill="url(#paint155_linear)"/>
<path d="M267.84 213.08L311.52 214.69L360.01 241.18L325.17 245.68L300.6 242.99C300.59 242.98 271.85 240.53 267.84 213.08Z" fill="url(#paint156_linear)"/>
<path d="M300.59 242.98V249.04C300.59 249.04 275.1 242.87 267.72 223.59C267.72 223.59 263.02 250.93 248.41 274.09L248.57 269.47C248.57 269.47 261.57 245.99 267.83 213.07C267.83 213.07 267.99 213.53 268.33 214.35C270.46 219.51 279.67 238.62 300.59 242.98Z" fill="url(#paint157_linear)"/>
<path d="M300.59 249.04C300.59 249.04 275.1 242.87 267.72 223.59L267.76 222.18C267.76 222.18 272.18 240.45 300.59 249.04Z" fill="white"/>
<path d="M268.33 214.36C260.22 250.68 248.99 269.54 248.99 269.54L248.41 274.09L248.57 269.47C248.57 269.47 261.57 245.99 267.83 213.07C267.83 213.08 268 213.54 268.33 214.36Z" fill="white"/>
<path d="M300.59 242.98L339.01 243.95L338.65 249.85L300.59 249.04V242.98Z" fill="url(#paint158_linear)"/>
<path d="M312.4 212.19C312.4 213.56 312 214.68 311.52 214.68L267.84 213.07V208.08L304.85 209.44L305.12 209.45L311.52 209.69C311.54 209.69 311.58 209.69 311.61 209.7C312.05 209.83 312.4 210.9 312.4 212.19Z" fill="url(#paint159_linear)"/>
<path d="M268.72 210.59C268.72 211.96 268.32 213.08 267.84 213.08C267.52 213.08 267.23 212.58 267.08 211.85C267.01 211.48 266.96 211.05 266.96 210.59C266.96 209.21 267.36 208.09 267.84 208.09C267.96 208.09 268.08 208.16 268.19 208.29C268.49 208.66 268.72 209.55 268.72 210.59Z" fill="url(#paint160_linear)"/>
<path d="M278.93 302.51L279.41 290.54L275.15 292.61L274.67 304.58L278.93 302.51Z" fill="url(#paint161_linear)"/>
<path d="M279.41 290.54L279.38 291.1L275.55 292.96L275.15 292.61L279.41 290.54Z" fill="url(#paint162_linear)"/>
<path d="M274.67 304.58L275.09 304.38L275.55 292.96L275.15 292.61L274.67 304.58Z" fill="url(#paint163_linear)"/>
<path d="M287.02 297.99L287.5 286.02L283.25 288.08L282.77 300.05L287.02 297.99Z" fill="url(#paint164_linear)"/>
<path d="M287.5 286.02L287.48 286.57L283.64 288.44L283.25 288.08L287.5 286.02Z" fill="url(#paint165_linear)"/>
<path d="M282.77 300.05L283.19 299.85L283.64 288.44L283.25 288.08L282.77 300.05Z" fill="url(#paint166_linear)"/>
<path d="M295.11 293.46L295.59 281.49L291.34 283.56L290.86 295.53L295.11 293.46Z" fill="url(#paint167_linear)"/>
<path d="M295.59 281.49L295.57 282.05L291.74 283.91L291.34 283.56L295.59 281.49Z" fill="url(#paint168_linear)"/>
<path d="M290.86 295.53L291.28 295.33L291.74 283.91L291.34 283.56L290.86 295.53Z" fill="url(#paint169_linear)"/>
<path d="M303.21 288.94L303.69 276.97L299.44 279.03L298.95 291L303.21 288.94Z" fill="url(#paint170_linear)"/>
<path d="M303.69 276.97L303.67 277.52L299.83 279.38L299.44 279.03L303.69 276.97Z" fill="url(#paint171_linear)"/>
<path d="M298.95 291L299.37 290.8L299.83 279.38L299.44 279.03L298.95 291Z" fill="url(#paint172_linear)"/>
<path d="M358.39 226.54L358.14 265.29L357.92 298.98L332.87 310.07V238.05L342.29 233.16L358.39 226.54Z" fill="url(#paint173_linear)"/>
<path d="M332.87 259.4V260.12L358.27 245.67V244.95L332.87 259.4ZM332.87 300.96L358 286.67V285.95L332.86 300.25V300.96H332.87Z" fill="#A7B5DC"/>
<path d="M358.39 226.54L358.14 265.29L332.87 247.78V238.05L342.29 233.16L358.39 226.54Z" fill="url(#paint174_linear)"/>
<path d="M433.38 232.09V303.6L357.92 298.98L358.32 237.95L358.4 224.8L433.19 232.08L433.38 232.09Z" fill="url(#paint175_linear)"/>
<path d="M358.27 244.96V245.58L433.38 250.94V250.32L358.27 244.96ZM358 286.67L433.38 292.05V291.43L358 286.05V286.67Z" fill="#7C97DD"/>
<path d="M433.19 232.08L431.62 289.83L358.32 237.95L358.4 224.8L433.19 232.08Z" fill="url(#paint176_linear)"/>
<path d="M359.12 228.81L357.96 292.64L358.4 229.62L359.12 228.81Z" fill="white"/>
<path d="M374.8 187.6C374.32 185.98 373.08 184.91 372.03 185.22C371.86 185.27 371.71 185.36 371.57 185.48C358.08 193.08 338.05 196.45 338.05 196.45L339.99 203.03C339.99 203.03 346.07 203.33 347.28 203.03C348.48 202.73 348.48 202.61 348.48 202.61C348.48 202.61 365.7 198.58 368.59 196.45C371.48 194.32 373.99 191.03 373.99 191.03L373.98 191C374.87 190.54 375.24 189.1 374.8 187.6Z" fill="url(#paint177_linear)"/>
<path d="M339.97 203C339.97 203 364.18 197.66 373.97 191L418.29 193.49L470.21 195.5L456.82 201.04L448.11 222.14L411.7 220.24L351 210.79L339.97 203Z" fill="url(#paint178_linear)"/>
<path d="M448.12 220.94L444.15 229.25L346.6 217.45L314.57 235.56L310.6 228.65C310.6 228.65 328.78 220.1 339.98 202.99C339.98 202.99 341.4 203.41 344.06 204.15C356.67 207.56 397.31 217.67 448.12 220.94Z" fill="url(#paint179_linear)"/>
<path d="M340.73 203.79L344.06 204.15C341.4 203.42 339.98 202.99 339.98 202.99C328.78 220.1 310.6 228.65 310.6 228.65L314.57 235.56L311.43 228.82C311.43 228.82 326.26 222.91 340.35 203.97L343.43 209.39L340.73 203.79Z" fill="white"/>
<path d="M440.77 226.24L440.3 226.84L432.26 236.84L360.91 229.86L358.4 229.61L358.22 229.7L335.01 240.2L334.51 240.43L332.87 241.17L314.56 235.56L317.65 233.58L345.64 215.59L347.19 215.76H347.23L350.22 216.1L440.4 226.2L440.77 226.24Z" fill="url(#paint180_linear)"/>
<path opacity="0.75" d="M440.4 226.2L440.3 226.84L432.26 236.84L360.91 229.86L358.4 229.61L358.22 229.7L347.19 215.76H347.23L350.22 216.1L440.4 226.2Z" fill="url(#paint181_linear)"/>
<path d="M335.01 240.2L334.51 240.43L332.87 241.17L314.56 235.56L317.65 233.58L335.01 240.2Z" fill="url(#paint182_linear)"/>
<path d="M334.51 240.43L332.87 241.17L314.56 235.56L316.85 234.19L334.51 240.43Z" fill="url(#paint183_linear)"/>
<path d="M360.91 229.86L358.4 229.61L358.22 229.7L347.23 215.76L350.22 216.1L360.91 229.86Z" fill="url(#paint184_linear)"/>
<path d="M344.26 216.48L356.81 230.34L358.4 229.62L359.99 229.77L348.75 215.94L345.64 215.59L344.26 216.48Z" fill="url(#paint185_linear)"/>
<path d="M341.14 199.08C341.68 200.9 341.15 202.65 339.97 203C338.79 203.35 337.4 202.16 336.86 200.34C336.32 198.52 336.85 196.77 338.03 196.42C339.21 196.07 340.6 197.26 341.14 199.08Z" fill="url(#paint186_linear)"/>
<path d="M375.2 273.26L382.84 273.81V261.58L375.2 261.04V273.26Z" fill="url(#paint187_linear)"/>
<path d="M382.84 261.58L383.51 260.97V273.85L382.84 273.81V261.58Z" fill="url(#paint188_linear)"/>
<path d="M375.2 261.04V260.38L383.51 260.97L382.84 261.58L375.2 261.04Z" fill="url(#paint189_linear)"/>
<path d="M397.66 274.86L405.3 275.41V263.19L397.66 262.64V274.86Z" fill="url(#paint190_linear)"/>
<path d="M405.3 263.19L405.96 262.57V275.46L405.3 275.41V263.19Z" fill="url(#paint191_linear)"/>
<path d="M397.66 262.64V261.98L405.96 262.57L405.3 263.19L397.66 262.64Z" fill="url(#paint192_linear)"/>
<path d="M351.45 274.88V261.98L346.96 264.39V277.28L351.45 274.88Z" fill="url(#paint193_linear)"/>
<path d="M351.45 261.98V262.58L347.41 264.75L346.96 264.39L351.45 261.98Z" fill="url(#paint194_linear)"/>
<path d="M346.96 277.28L347.41 277.04V264.75L346.96 264.39V277.28Z" fill="url(#paint195_linear)"/>
<path d="M342.84 279.47V266.58L338.36 268.98V281.88L342.84 279.47Z" fill="url(#paint196_linear)"/>
<path d="M342.84 266.58V267.17L338.8 269.34L338.36 268.98L342.84 266.58Z" fill="url(#paint197_linear)"/>
<path d="M338.36 281.88L338.8 281.64V269.34L338.36 268.98V281.88Z" fill="url(#paint198_linear)"/>
<path d="M544.1 235.4V309.1L532.71 308.4L445.94 303.12L429.45 302.11V229.61L466.52 210.46L495.2 195.65L533.81 227.04L544.1 235.4Z" fill="url(#paint199_linear)"/>
<path d="M429.45 244.52V245.14L544.1 253.31V252.69L429.45 244.52ZM429.45 286.43L544.1 294.61V293.99L429.45 285.81V286.43Z" fill="#7C97DD"/>
<path opacity="0.8" d="M544.1 235.4V309.1L532.71 308.4L486.77 275.38L489.67 292.38L429.45 238.24L466.52 210.46L495.2 195.65L533.81 227.04L544.1 235.4Z" fill="url(#paint200_linear)"/>
<path opacity="0.6" d="M495.2 195.65L484.21 201.33L475.94 208.46L534.71 271.77L544.1 244.87L522.76 218.06L495.2 195.65Z" fill="url(#paint201_linear)"/>
<path opacity="0.6" d="M503.4 243.26L532.62 272.81L518.01 260.93L503.4 243.26Z" fill="url(#paint202_linear)"/>
<path d="M429.45 229.61V302.11H416.93V233.22L429.45 229.61Z" fill="url(#paint203_linear)"/>
<path d="M429.45 302.11L430.05 237.26L429.45 238.24V302.11Z" fill="url(#paint204_linear)"/>
<path d="M429.45 232.66V279.48L416.93 265.44V236.3L429.45 232.66Z" fill="url(#paint205_linear)"/>
<path d="M557.95 246.11L544.1 244.87C544.1 244.87 516.56 230.9 493.92 199.75L500.18 197.02L557.95 246.11Z" fill="url(#paint206_linear)"/>
<path d="M499.18 181.93L469.5 191.01C469.5 191.01 439.2 219.27 390.55 232.76L416.2 230.23C416.2 230.23 443.06 225.05 453.05 220.11C463.05 215.17 488.22 197.83 488.22 197.83L499.18 181.93Z" fill="url(#paint207_linear)"/>
<path d="M563.13 235.04L557.95 246.12C538.62 240.33 516.73 219.45 505.55 207.69C505.33 213.74 502.14 218.54 498.22 218.54C494.16 218.54 490.88 213.39 490.88 207.04C490.88 206.31 490.93 205.58 491 204.89C454.08 231.92 420.66 241.18 420.66 241.18L419.35 237.97L416.2 230.23C422.8 228.19 429.13 225.8 435.15 223.21C473.45 206.75 499.18 181.93 499.18 181.93C528.8 229.13 563.13 235.04 563.13 235.04Z" fill="url(#paint208_linear)"/>
<path d="M420.66 241.17L395.49 242.29L390.55 232.75L416.21 230.22L419.36 237.96L420.66 241.17Z" fill="url(#paint209_linear)"/>
<path d="M416.93 230.5L419.36 237.97L415.98 230.93L390.56 232.76L416.22 230.23C422.82 228.19 429.15 225.8 435.17 223.21C430.38 225.91 416.93 230.5 416.93 230.5Z" fill="white"/>
<path d="M469.32 183.47C469.26 183.48 469.2 183.49 469.13 183.52C469.04 183.54 468.97 183.58 468.89 183.63C468.06 184.1 467.46 185.53 467.46 187.23C467.46 189.31 468.37 191 469.5 191C469.72 191 469.92 190.94 470.12 190.81L470.72 190.62L499.18 181.92V174.37L469.32 183.47Z" fill="url(#paint210_linear)"/>
<path d="M502.03 178.15C502.03 176.07 500.75 174.38 499.18 174.38C497.61 174.38 496.33 176.07 496.33 178.15C496.33 180.23 497.61 181.92 499.18 181.92C500.76 181.93 502.03 180.24 502.03 178.15Z" fill="url(#paint211_linear)"/>
<path d="M450.53 268.41L458.17 268.95V256.73L450.53 256.19V268.41Z" fill="url(#paint212_linear)"/>
<path d="M458.17 256.73L458.84 256.12V269L458.17 268.95V256.73Z" fill="url(#paint213_linear)"/>
<path d="M450.53 256.19V255.53L458.84 256.12L458.17 256.73L450.53 256.19Z" fill="url(#paint214_linear)"/>
<path d="M472.56 269.98L480.2 270.52V258.3L472.56 257.76V269.98Z" fill="url(#paint215_linear)"/>
<path d="M480.2 258.3L480.87 257.69V270.57L480.2 270.52V258.3Z" fill="url(#paint216_linear)"/>
<path d="M472.56 257.76V257.1L480.87 257.69L480.2 258.3L472.56 257.76Z" fill="url(#paint217_linear)"/>
<path d="M494.59 271.55L502.23 272.1V259.87L494.59 259.33V271.55Z" fill="url(#paint218_linear)"/>
<path d="M502.23 259.87L502.9 259.26V272.14L502.23 272.1V259.87Z" fill="url(#paint219_linear)"/>
<path d="M494.59 259.33V258.67L502.9 259.26L502.23 259.87L494.59 259.33Z" fill="url(#paint220_linear)"/>
<path d="M516.63 273.12L524.26 273.67V261.44L516.63 260.9V273.12Z" fill="url(#paint221_linear)"/>
<path d="M524.26 261.44L524.93 260.83V273.71L524.26 273.67V261.44Z" fill="url(#paint222_linear)"/>
<path d="M516.63 260.9V260.24L524.93 260.83L524.26 261.44L516.63 260.9Z" fill="url(#paint223_linear)"/>
<path d="M520.37 161.53L525.94 162.17L540.99 151.4C538.08 151.1 535.02 150.77 531.83 150.42L520.37 161.53Z" fill="url(#paint224_linear)"/>
<path d="M582.64 153.02C582.64 153.02 578.87 153.49 572.65 153.92C572.43 153.93 572.17 153.94 571.88 153.95L562.07 157.33L542.47 164.08L545.47 164.35L582.64 153.02Z" fill="url(#paint225_linear)"/>
<path d="M518.65 161.33L523.4 161.88L539.22 151.22C536.51 150.93 533.67 150.63 530.73 150.3L518.65 161.33Z" fill="url(#paint226_linear)"/>
<path d="M436.7 151.89L437.44 138.84C434.73 138.48 432.04 138.11 429.38 137.75L432.66 151.42L436.7 151.89Z" fill="url(#paint227_linear)"/>
<path d="M461.63 142.01L461.79 148.39L461.95 154.79L467.6 155.44L469.3 149.25L470.97 143.19C467.86 142.81 464.74 142.41 461.63 142.01Z" fill="url(#paint228_linear)"/>
<path d="M493.73 158.46L498.98 159.07L506.06 147.49C502.95 147.12 499.79 146.75 496.58 146.36L493.73 158.46Z" fill="url(#paint229_linear)"/>
<path d="M492.89 158.36L497.67 158.91L505.73 147.44C502.59 147.07 499.4 146.69 496.17 146.3L492.89 158.36Z" fill="url(#paint230_linear)"/>
<path d="M461.06 141.94L461.24 148.22L461.43 154.74L466.69 155.35L468.75 148.96L470.62 143.16C467.43 142.75 464.24 142.35 461.06 141.94Z" fill="url(#paint231_linear)"/>
<path d="M436.07 151.82L436.93 138.78C434.11 138.4 431.31 138.02 428.55 137.65L432.41 151.41L436.07 151.82Z" fill="url(#paint232_linear)"/>
<path d="M401.25 147.81L404.46 148.18L400.56 133.69C398.02 133.32 395.55 132.95 393.16 132.59L401.25 147.81Z" fill="url(#paint233_linear)"/>
<path d="M355.48 127.24L362.54 136.27L369.6 145.3L371.27 144.36L373.07 144.57L366.69 135.78L360.31 126.99C359.05 126.68 357.87 126.37 356.79 126.05C356.8 126.05 356.32 126.49 355.48 127.24Z" fill="url(#paint234_linear)"/>
<path d="M0 556.7L53.96 552.85L214.85 548.99L212.92 572.12L70.82 567.3L0 556.7Z" fill="#66D8DA"/>
<path d="M357.93 297.41C357.93 297.41 352.13 395.81 325.16 451.68C298.18 507.57 178.72 560.56 178.72 560.56C162.64 560.35 145.9 560.14 129.58 559.93C122.23 559.84 114.96 559.76 107.88 559.66C92.64 559.49 78.24 559.31 65.72 559.16C47.56 558.94 33.33 558.77 26.05 558.69C22.6 558.67 20.72 558.64 20.72 558.64C20.72 558.64 53.47 542.26 61.19 533.59C68.89 524.92 85.27 512.4 98.76 495.05C112.25 477.72 136.33 460.37 136.33 460.37C136.33 460.37 165.24 444.95 172.94 434.36C180.66 423.76 194.15 408.34 203.78 400.64C213.41 392.94 242.32 376.56 242.32 376.56C242.32 376.56 248.09 363.07 251.95 350.54C253.95 344.02 260.09 336.61 265.02 334.33C269.54 332.21 273.21 329.27 276.43 327.42C280.24 325.25 290.21 321.24 299.9 317.28C307.38 314.23 314.71 311.21 318.9 309.12C327.6 304.78 352.4 298.75 357.14 297.62C357.66 297.47 357.93 297.41 357.93 297.41Z" fill="url(#paint235_linear)"/>
<path opacity="0.35" d="M248.41 425.35C248.41 425.35 260 410.9 268.33 394.52C276.67 378.14 283.42 352.45 301.56 333.18C301.56 333.18 282.23 348.43 277.04 359.92C271.85 371.4 265.11 392.6 261.25 400.95C257.39 409.3 248.41 425.35 248.41 425.35Z" fill="url(#paint236_linear)"/>
<path opacity="0.25" d="M133.05 500.83C144.27 491.7 160.28 480.27 164.35 476.69C160.39 481.05 145.19 498.68 138.74 508.44C131.04 520.1 123 536.96 116.9 547.08C114.68 550.75 111.3 555.33 107.88 559.66C92.64 559.49 78.24 559.31 65.72 559.16C78.59 551.44 95.44 540.69 102.84 533.14C115.62 520.09 120.62 510.94 133.05 500.83Z" fill="url(#paint237_linear)"/>
<path opacity="0.35" d="M357.93 297.41C357.93 297.41 352.13 395.81 325.16 451.68C298.18 507.57 178.72 560.56 178.72 560.56C162.64 560.35 145.9 560.14 129.58 559.93C137.54 551.46 148.53 540.45 160.31 530.7C183.54 511.42 187.24 507.44 205.38 488.24C223.24 469.34 237.05 446.58 237.47 445.87L227.22 475.82C227.22 475.82 258.72 445.32 268.34 430.92C277.96 416.52 293.39 363.67 301.57 350.84C309.76 338.01 324.21 313.93 332.88 310.07C339.16 307.27 351.07 300.9 357.15 297.6C357.66 297.47 357.93 297.41 357.93 297.41Z" fill="url(#paint238_linear)"/>
<path d="M276.42 327.4C280.23 325.23 290.2 321.22 299.89 317.26C286.04 325.51 277 331.29 274.5 334.15C270.01 339.31 262.06 339.82 258.2 346.35C254.4 352.78 239.15 392.24 238.79 393.16L241.34 380.4C241.34 380.4 216.29 399.02 203.77 406.25C191.24 413.47 172.87 442.21 172.87 442.21L203.74 426.36C202.63 427.02 167.37 447.89 160.41 451.05C153.34 454.26 128.94 470.96 122.19 475.81C115.45 480.66 94.89 510.13 73.58 528.62C59.61 540.74 38.75 552.21 26.03 558.67C22.58 558.65 20.7 558.62 20.7 558.62C20.7 558.62 53.45 542.24 61.17 533.57C68.87 524.9 85.25 512.38 98.74 495.03C112.23 477.7 136.31 460.35 136.31 460.35C136.31 460.35 165.22 444.93 172.92 434.34C180.64 423.74 194.13 408.32 203.76 400.62C213.39 392.92 242.3 376.54 242.3 376.54C242.3 376.54 248.07 363.05 251.93 350.52C253.93 344 260.07 336.59 265 334.31C269.53 332.19 273.2 329.24 276.42 327.4Z" fill="url(#paint239_radial)"/>
<path d="M101.65 580.3L179.68 566.82L220.63 577.41L219.67 588.49L101.65 580.3Z" fill="#66D8DA"/>
<path d="M765.45 594.27L512.23 589.54L479.56 588.93L448.77 588.36L418.6 587.8L408.22 587.6L323.84 586.03L145.96 582.71C145.96 582.71 143.06 567.3 169.08 549C185.89 537.17 206.31 517.7 221.26 501.24C221.3 501.22 221.31 501.19 221.33 501.17C229.48 492.19 236 484.11 239.4 478.67C249.04 463.25 269.27 444.95 287.57 428.57C305.88 412.19 318.41 397.75 322.25 375.58C326.05 353.78 335.2 330.63 335.48 329.91C335.49 329.9 335.49 329.9 335.49 329.9L357.91 297.42C357.91 297.42 486.99 300.43 503.37 301.4C519.75 302.36 558.29 306.22 567.92 307.17C577.56 308.14 602.6 311.03 602.6 311.03C602.6 311.03 641.14 341.85 652.7 367.88C664.26 393.89 671.01 396.78 693.17 411.24C715.32 425.69 740.37 450.74 750.02 473.86C759.67 496.97 765.45 594.27 765.45 594.27Z" fill="url(#paint240_linear)"/>
<path opacity="0.6" d="M214.61 583.99L323.85 586.03L408.23 587.6L418.61 587.8L448.78 588.36L479.57 588.93L512.24 589.54L765.45 594.27C765.45 594.27 759.68 496.97 750.04 473.85C740.4 450.73 715.35 425.68 693.19 411.23C671.03 396.77 664.28 393.88 652.72 367.87C641.16 341.85 602.62 311.02 602.62 311.02C602.62 311.02 577.58 308.13 567.94 307.16C558.31 306.2 519.77 302.34 503.39 301.39C488.66 300.52 382.8 297.99 361.63 297.49C370.8 314.25 385.21 342 386.64 353.21C388.75 369.78 386.33 406.71 374.54 434.98C362.74 463.24 335.02 501.15 335.02 501.15C335.02 501.15 344.4 480.8 350.2 463.83C356 446.86 355.49 434.98 355.49 434.98C355.49 434.98 332.7 477.11 317.85 497.64C303.01 518.16 281.11 530.69 262.19 547.06C251.6 556.23 230.84 571.94 214.61 583.99Z" fill="url(#paint241_linear)"/>
<path opacity="0.75" d="M444.87 552.31C443.5 543.1 440.4 488.94 440.4 488.94C440.4 488.94 435.57 505.96 431.92 520.58C430.13 496.81 423.93 458.52 418.61 444.96C412.18 428.6 405.3 353.22 405.3 353.22C405.3 353.22 400.63 412.51 393.8 430.26C386.97 448.01 373.02 491.51 360.01 511.74C347 531.97 309.32 552.31 309.32 552.31L316.05 533.13C316.05 533.13 296.58 551.25 274.68 565.06C264.65 571.38 255.75 578.57 248.79 584.64L323.85 586.04L408.23 587.61L418.61 587.81L422.02 587.87L448.77 588.37C447.42 574.76 445.65 557.61 444.87 552.31ZM382 511.74C379.59 518.64 357.92 547.07 357.92 547.07C357.44 544.18 376.71 513.19 379.11 505.8C381.52 498.41 391.15 475.81 391.15 475.81C391.15 475.81 384.41 504.84 382 511.74Z" fill="url(#paint242_linear)"/>
<path opacity="0.75" d="M426.72 373.89C426.72 373.89 440.94 378.53 446.99 406.96C453.04 435.39 455.68 463.84 455.68 463.84C455.68 463.84 443.57 418.42 439.01 404.9C434.45 391.39 430.49 379.37 426.72 373.89Z" fill="url(#paint243_linear)"/>
<path opacity="0.75" d="M479.56 588.93C481.18 563.03 483.64 519.88 483.32 501.16C482.85 473.52 478.21 438.19 478.21 438.19L468.45 395.85C469.07 396.98 489.02 433.59 493.92 467.09C498.9 501.13 497.53 509.13 501.1 527.93C503.75 541.88 509.49 572.72 512.23 589.53L479.56 588.93Z" fill="url(#paint244_linear)"/>
<path opacity="0.75" d="M750.04 473.85C740.4 450.73 715.35 425.68 693.19 411.23C671.03 396.77 664.28 393.88 652.72 367.87C641.16 341.85 602.62 311.02 602.62 311.02C602.62 311.02 577.58 308.13 567.94 307.16C558.31 306.2 519.77 302.34 503.39 301.39C487.01 300.42 357.93 297.41 357.93 297.41C357.93 297.41 386.82 305.24 397.41 314.77C408 324.3 445.53 359.91 445.53 359.91L439.59 317.25C439.59 317.25 502.42 373.64 515.34 397.12C528.26 420.6 545.78 475.76 549.32 504.09C551.27 519.68 553.68 558.54 555.46 590.34L765.45 594.27C765.45 594.27 759.67 496.97 750.04 473.85ZM566.8 471.3C562.76 450.45 538.56 385.93 538.56 385.93C538.56 385.93 563.27 427.84 572.79 458.43C582.32 489.02 582.63 524.33 582.63 524.33C582.63 524.33 570.84 492.15 566.8 471.3Z" fill="url(#paint245_linear)"/>
<path d="M203.77 539.1C203.77 539.1 218.22 524.68 229.78 514.68C241.34 504.68 263.5 482.04 263.5 482.04C263.5 482.04 244.71 506.77 238.45 511.75C232.19 516.72 203.77 539.1 203.77 539.1Z" fill="url(#paint246_linear)"/>
<path d="M335.51 329.89C335.51 329.89 329.98 356.31 329.5 367.55C329.01 378.79 324.53 416.73 324.53 416.73L325.4 394.53C325.4 394.53 317.45 402.56 315.32 406.25C313.19 409.93 265.49 454.1 265.49 454.1L221.34 501.16C229.49 492.18 236.01 484.1 239.41 478.66C249.05 463.24 269.28 444.94 287.58 428.56C305.89 412.18 318.42 397.74 322.26 375.57C326.06 353.77 335.21 330.62 335.49 329.9C335.51 329.89 335.51 329.89 335.51 329.89Z" fill="url(#paint247_radial)"/>
<defs>
<linearGradient id="paint0_linear" x1="276.783" y1="149.236" x2="295.778" y2="159.967" gradientUnits="userSpaceOnUse">
<stop stop-color="#438A98"/>
<stop offset="1" stop-color="#003343"/>
</linearGradient>
<linearGradient id="paint1_linear" x1="282.147" y1="153.649" x2="294.581" y2="157.286" gradientUnits="userSpaceOnUse">
<stop stop-color="#438A98"/>
<stop offset="1" stop-color="#003343"/>
</linearGradient>
<linearGradient id="paint2_linear" x1="553.412" y1="262.436" x2="413.397" y2="134.521" gradientUnits="userSpaceOnUse">
<stop stop-color="#EBE9F7"/>
<stop offset="1" stop-color="#A9B8EF"/>
</linearGradient>
<linearGradient id="paint3_linear" x1="481.057" y1="38.8417" x2="555.139" y2="78.2273" gradientUnits="userSpaceOnUse">
<stop stop-color="#438A98"/>
<stop offset="1" stop-color="#003343"/>
</linearGradient>
<linearGradient id="paint4_linear" x1="322.936" y1="111.758" x2="379.78" y2="104.05" gradientUnits="userSpaceOnUse">
<stop stop-color="#ECE7DF"/>
<stop offset="0.1404" stop-color="#EBE9E8"/>
<stop offset="1" stop-color="#DEDAE8"/>
</linearGradient>
<linearGradient id="paint5_linear" x1="386.364" y1="106.446" x2="313.144" y2="77.8643" gradientUnits="userSpaceOnUse">
<stop stop-color="#BBC6EF" stop-opacity="0"/>
<stop offset="1" stop-color="#ACB8E7"/>
</linearGradient>
<linearGradient id="paint6_linear" x1="368.771" y1="104.306" x2="379.616" y2="95.4135" gradientUnits="userSpaceOnUse">
<stop stop-color="#80D7C0"/>
<stop offset="1" stop-color="#0083D9"/>
</linearGradient>
<linearGradient id="paint7_linear" x1="369.657" y1="98.0255" x2="373.843" y2="94.5926" gradientUnits="userSpaceOnUse">
<stop stop-color="#9BAEE0"/>
<stop offset="1" stop-color="#7E90D8"/>
</linearGradient>
<linearGradient id="paint8_linear" x1="367.401" y1="104.973" x2="374.163" y2="99.4281" gradientUnits="userSpaceOnUse">
<stop stop-color="#9BAEE0"/>
<stop offset="1" stop-color="#7E90D8"/>
</linearGradient>
<linearGradient id="paint9_linear" x1="361.205" y1="108.545" x2="372.051" y2="99.6525" gradientUnits="userSpaceOnUse">
<stop stop-color="#80D7C0"/>
<stop offset="1" stop-color="#0083D9"/>
</linearGradient>
<linearGradient id="paint10_linear" x1="362.091" y1="102.265" x2="366.277" y2="98.8317" gradientUnits="userSpaceOnUse">
<stop stop-color="#9BAEE0"/>
<stop offset="1" stop-color="#7E90D8"/>
</linearGradient>
<linearGradient id="paint11_linear" x1="359.835" y1="109.212" x2="366.597" y2="103.667" gradientUnits="userSpaceOnUse">
<stop stop-color="#9BAEE0"/>
<stop offset="1" stop-color="#7E90D8"/>
</linearGradient>
<linearGradient id="paint12_linear" x1="353.639" y1="112.785" x2="364.484" y2="103.892" gradientUnits="userSpaceOnUse">
<stop stop-color="#80D7C0"/>
<stop offset="1" stop-color="#0083D9"/>
</linearGradient>
<linearGradient id="paint13_linear" x1="354.525" y1="106.504" x2="358.711" y2="103.071" gradientUnits="userSpaceOnUse">
<stop stop-color="#9BAEE0"/>
<stop offset="1" stop-color="#7E90D8"/>
</linearGradient>
<linearGradient id="paint14_linear" x1="352.269" y1="113.451" x2="359.031" y2="107.906" gradientUnits="userSpaceOnUse">
<stop stop-color="#9BAEE0"/>
<stop offset="1" stop-color="#7E90D8"/>
</linearGradient>
<linearGradient id="paint15_linear" x1="346.073" y1="117.024" x2="356.919" y2="108.131" gradientUnits="userSpaceOnUse">
<stop stop-color="#80D7C0"/>
<stop offset="1" stop-color="#0083D9"/>
</linearGradient>
<linearGradient id="paint16_linear" x1="346.959" y1="110.743" x2="351.145" y2="107.31" gradientUnits="userSpaceOnUse">
<stop stop-color="#9BAEE0"/>
<stop offset="1" stop-color="#7E90D8"/>
</linearGradient>
<linearGradient id="paint17_linear" x1="344.703" y1="117.69" x2="351.465" y2="112.145" gradientUnits="userSpaceOnUse">
<stop stop-color="#9BAEE0"/>
<stop offset="1" stop-color="#7E90D8"/>
</linearGradient>
<linearGradient id="paint18_linear" x1="338.507" y1="121.263" x2="349.353" y2="112.37" gradientUnits="userSpaceOnUse">
<stop stop-color="#80D7C0"/>
<stop offset="1" stop-color="#0083D9"/>
</linearGradient>
<linearGradient id="paint19_linear" x1="339.393" y1="114.982" x2="343.579" y2="111.549" gradientUnits="userSpaceOnUse">
<stop stop-color="#9BAEE0"/>
<stop offset="1" stop-color="#7E90D8"/>
</linearGradient>
<linearGradient id="paint20_linear" x1="337.137" y1="121.929" x2="343.899" y2="116.385" gradientUnits="userSpaceOnUse">
<stop stop-color="#9BAEE0"/>
<stop offset="1" stop-color="#7E90D8"/>
</linearGradient>
<linearGradient id="paint21_linear" x1="330.941" y1="125.502" x2="341.787" y2="116.609" gradientUnits="userSpaceOnUse">
<stop stop-color="#80D7C0"/>
<stop offset="1" stop-color="#0083D9"/>
</linearGradient>
<linearGradient id="paint22_linear" x1="331.827" y1="119.221" x2="336.013" y2="115.788" gradientUnits="userSpaceOnUse">
<stop stop-color="#9BAEE0"/>
<stop offset="1" stop-color="#7E90D8"/>
</linearGradient>
<linearGradient id="paint23_linear" x1="329.571" y1="126.169" x2="336.333" y2="120.623" gradientUnits="userSpaceOnUse">
<stop stop-color="#9BAEE0"/>
<stop offset="1" stop-color="#7E90D8"/>
</linearGradient>
<linearGradient id="paint24_linear" x1="376.695" y1="85.1727" x2="385.031" y2="87.0026" gradientUnits="userSpaceOnUse">
<stop stop-color="#EBE9F7"/>
<stop offset="1" stop-color="#DEDAE8"/>
</linearGradient>
<linearGradient id="paint25_linear" x1="385.254" y1="62.2156" x2="505.584" y2="133.763" gradientUnits="userSpaceOnUse">
<stop stop-color="#BBC6EF"/>
<stop offset="1" stop-color="#ACB8E7"/>
</linearGradient>
<linearGradient id="paint26_linear" x1="511.031" y1="136.209" x2="370.37" y2="51.4273" gradientUnits="userSpaceOnUse">
<stop stop-color="#BBC6EF" stop-opacity="0"/>
<stop offset="1" stop-color="#ACB8E7"/>
</linearGradient>
<linearGradient id="paint27_linear" x1="399.849" y1="103.272" x2="401.767" y2="91.1288" gradientUnits="userSpaceOnUse">
<stop stop-color="#00BECA"/>
<stop offset="0.8933" stop-color="#0071D9"/>
</linearGradient>
<linearGradient id="paint28_linear" x1="404.533" y1="99.6242" x2="405.133" y2="87.6652" gradientUnits="userSpaceOnUse">
<stop stop-color="#9BAEE0"/>
<stop offset="1" stop-color="#7E90D8"/>
</linearGradient>
<linearGradient id="paint29_linear" x1="408.883" y1="94.8597" x2="403.413" y2="90.5812" gradientUnits="userSpaceOnUse">
<stop stop-color="#9BAEE0"/>
<stop offset="1" stop-color="#7E90D8"/>
</linearGradient>
<linearGradient id="paint30_linear" x1="418.772" y1="105.58" x2="420.69" y2="93.4365" gradientUnits="userSpaceOnUse">
<stop stop-color="#00BECA"/>
<stop offset="0.8933" stop-color="#0071D9"/>
</linearGradient>
<linearGradient id="paint31_linear" x1="423.456" y1="101.932" x2="424.056" y2="89.9728" gradientUnits="userSpaceOnUse">
<stop stop-color="#9BAEE0"/>
<stop offset="1" stop-color="#7E90D8"/>
</linearGradient>
<linearGradient id="paint32_linear" x1="427.806" y1="97.1674" x2="422.336" y2="92.8887" gradientUnits="userSpaceOnUse">
<stop stop-color="#9BAEE0"/>
<stop offset="1" stop-color="#7E90D8"/>
</linearGradient>
<linearGradient id="paint33_linear" x1="437.695" y1="107.888" x2="439.613" y2="95.7442" gradientUnits="userSpaceOnUse">
<stop stop-color="#00BECA"/>
<stop offset="0.8933" stop-color="#0071D9"/>
</linearGradient>
<linearGradient id="paint34_linear" x1="442.379" y1="104.24" x2="442.979" y2="92.2805" gradientUnits="userSpaceOnUse">
<stop stop-color="#9BAEE0"/>
<stop offset="1" stop-color="#7E90D8"/>
</linearGradient>
<linearGradient id="paint35_linear" x1="446.729" y1="99.475" x2="441.259" y2="95.1964" gradientUnits="userSpaceOnUse">
<stop stop-color="#9BAEE0"/>
<stop offset="1" stop-color="#7E90D8"/>
</linearGradient>
<linearGradient id="paint36_linear" x1="456.618" y1="110.195" x2="458.537" y2="98.0518" gradientUnits="userSpaceOnUse">
<stop stop-color="#00BECA"/>
<stop offset="0.8933" stop-color="#0071D9"/>
</linearGradient>
<linearGradient id="paint37_linear" x1="461.303" y1="106.547" x2="461.902" y2="94.5882" gradientUnits="userSpaceOnUse">
<stop stop-color="#9BAEE0"/>
<stop offset="1" stop-color="#7E90D8"/>
</linearGradient>
<linearGradient id="paint38_linear" x1="465.652" y1="101.783" x2="460.182" y2="97.5041" gradientUnits="userSpaceOnUse">
<stop stop-color="#9BAEE0"/>
<stop offset="1" stop-color="#7E90D8"/>
</linearGradient>
<linearGradient id="paint39_linear" x1="475.541" y1="112.503" x2="477.46" y2="100.359" gradientUnits="userSpaceOnUse">
<stop stop-color="#00BECA"/>
<stop offset="0.8933" stop-color="#0071D9"/>
</linearGradient>
<linearGradient id="paint40_linear" x1="480.226" y1="108.855" x2="480.826" y2="96.8959" gradientUnits="userSpaceOnUse">
<stop stop-color="#9BAEE0"/>
<stop offset="1" stop-color="#7E90D8"/>
</linearGradient>
<linearGradient id="paint41_linear" x1="484.575" y1="104.09" x2="479.106" y2="99.8118" gradientUnits="userSpaceOnUse">
<stop stop-color="#9BAEE0"/>
<stop offset="1" stop-color="#7E90D8"/>
</linearGradient>
<linearGradient id="paint42_linear" x1="494.465" y1="114.811" x2="496.383" y2="102.667" gradientUnits="userSpaceOnUse">
<stop stop-color="#00BECA"/>
<stop offset="0.8933" stop-color="#0071D9"/>
</linearGradient>
<linearGradient id="paint43_linear" x1="499.149" y1="111.163" x2="499.749" y2="99.2035" gradientUnits="userSpaceOnUse">
<stop stop-color="#9BAEE0"/>
<stop offset="1" stop-color="#7E90D8"/>
</linearGradient>
<linearGradient id="paint44_linear" x1="503.498" y1="106.398" x2="498.029" y2="102.119" gradientUnits="userSpaceOnUse">
<stop stop-color="#9BAEE0"/>
<stop offset="1" stop-color="#7E90D8"/>
</linearGradient>
<linearGradient id="paint45_linear" x1="411.456" y1="24.5652" x2="459.464" y2="66.1512" gradientUnits="userSpaceOnUse">
<stop stop-color="#9BAEE0"/>
<stop offset="1" stop-color="#7E90D8"/>
</linearGradient>
<linearGradient id="paint46_linear" x1="455.335" y1="82.5471" x2="438.475" y2="42.7254" gradientUnits="userSpaceOnUse">
<stop stop-color="#438A98"/>
<stop offset="1" stop-color="#003343"/>
</linearGradient>
<linearGradient id="paint47_linear" x1="441.532" y1="54.6765" x2="424.913" y2="36.8531" gradientUnits="userSpaceOnUse">
<stop stop-color="#BBC6EF" stop-opacity="0"/>
<stop offset="1" stop-color="#ACB8E7"/>
</linearGradient>
<linearGradient id="paint48_linear" x1="411.986" y1="-2.43619" x2="501.81" y2="59.7498" gradientUnits="userSpaceOnUse">
<stop stop-color="#772241"/>
<stop offset="1" stop-color="#3F001B"/>
</linearGradient>
<linearGradient id="paint49_linear" x1="338.876" y1="-27.3015" x2="485.269" y2="74.0475" gradientUnits="userSpaceOnUse">
<stop stop-color="#BBC6EF"/>
<stop offset="1" stop-color="#ACB8E7"/>
</linearGradient>
<linearGradient id="paint50_linear" x1="363.3" y1="37.7574" x2="466" y2="5.90133" gradientUnits="userSpaceOnUse">
<stop stop-color="#438A98"/>
<stop offset="1" stop-color="#003343"/>
</linearGradient>
<linearGradient id="paint51_linear" x1="437.874" y1="-1.006" x2="453.63" y2="4.00047" gradientUnits="userSpaceOnUse">
<stop stop-color="#438A98"/>
<stop offset="1" stop-color="#003343"/>
</linearGradient>
<linearGradient id="paint52_linear" x1="374.667" y1="1.28252" x2="422.101" y2="34.1219" gradientUnits="userSpaceOnUse">
<stop stop-color="#438A98"/>
<stop offset="1" stop-color="#003343"/>
</linearGradient>
<linearGradient id="paint53_linear" x1="357.134" y1="25.0697" x2="383.273" y2="43.166" gradientUnits="userSpaceOnUse">
<stop stop-color="#438A98"/>
<stop offset="1" stop-color="#003343"/>
</linearGradient>
<linearGradient id="paint54_linear" x1="361.522" y1="31.6031" x2="380.669" y2="44.2062" gradientUnits="userSpaceOnUse">
<stop stop-color="#438A98"/>
<stop offset="1" stop-color="#003343"/>
</linearGradient>
<linearGradient id="paint55_linear" x1="295.677" y1="98.6295" x2="308.041" y2="105.614" gradientUnits="userSpaceOnUse">
<stop stop-color="#438A98"/>
<stop offset="1" stop-color="#003343"/>
</linearGradient>
<linearGradient id="paint56_linear" x1="299.168" y1="101.502" x2="307.262" y2="103.869" gradientUnits="userSpaceOnUse">
<stop stop-color="#438A98"/>
<stop offset="1" stop-color="#003343"/>
</linearGradient>
<linearGradient id="paint57_linear" x1="303.482" y1="73.9546" x2="558.778" y2="92.0013" gradientUnits="userSpaceOnUse">
<stop stop-color="#EBE9F7"/>
<stop offset="1" stop-color="#DEDAE8"/>
</linearGradient>
<linearGradient id="paint58_linear" x1="291.166" y1="47.8421" x2="500.679" y2="119.944" gradientUnits="userSpaceOnUse">
<stop stop-color="#772241"/>
<stop offset="1" stop-color="#3F001B"/>
</linearGradient>
<linearGradient id="paint59_linear" x1="360.024" y1="89.8536" x2="342.923" y2="74.519" gradientUnits="userSpaceOnUse">
<stop stop-color="#772241" stop-opacity="0"/>
<stop offset="1" stop-color="#3F001B"/>
</linearGradient>
<linearGradient id="paint60_linear" x1="343.703" y1="104.126" x2="324.077" y2="94.7922" gradientUnits="userSpaceOnUse">
<stop stop-color="#772241" stop-opacity="0"/>
<stop offset="1" stop-color="#3F001B"/>
</linearGradient>
<linearGradient id="paint61_linear" x1="328.501" y1="115.789" x2="308.992" y2="111.132" gradientUnits="userSpaceOnUse">
<stop stop-color="#772241" stop-opacity="0"/>
<stop offset="1" stop-color="#3F001B"/>
</linearGradient>
<linearGradient id="paint62_linear" x1="509.234" y1="84.8631" x2="390.676" y2="57.6604" gradientUnits="userSpaceOnUse">
<stop stop-color="#772241" stop-opacity="0"/>
<stop offset="1" stop-color="#3F001B"/>
</linearGradient>
<linearGradient id="paint63_linear" x1="376.242" y1="68.8952" x2="381.787" y2="52.0647" gradientUnits="userSpaceOnUse">
<stop stop-color="#772241" stop-opacity="0"/>
<stop offset="1" stop-color="#3F001B"/>
</linearGradient>
<linearGradient id="paint64_linear" x1="432.432" y1="78.6886" x2="437.306" y2="63.8969" gradientUnits="userSpaceOnUse">
<stop stop-color="#772241" stop-opacity="0"/>
<stop offset="1" stop-color="#3F001B"/>
</linearGradient>
<linearGradient id="paint65_linear" x1="379.935" y1="77.8264" x2="371.746" y2="43.4639" gradientUnits="userSpaceOnUse">
<stop stop-color="#EF3126"/>
<stop offset="1" stop-color="#670317"/>
</linearGradient>
<linearGradient id="paint66_linear" x1="328.632" y1="117.106" x2="296.357" y2="110.041" gradientUnits="userSpaceOnUse">
<stop stop-color="#EF3126"/>
<stop offset="1" stop-color="#670317"/>
</linearGradient>
<linearGradient id="paint67_linear" x1="512.61" y1="91.8318" x2="565.278" y2="72.5632" gradientUnits="userSpaceOnUse">
<stop stop-color="#EF3126"/>
<stop offset="1" stop-color="#670317"/>
</linearGradient>
<linearGradient id="paint68_linear" x1="345.696" y1="106.808" x2="315.829" y2="93.3202" gradientUnits="userSpaceOnUse">
<stop stop-color="#EF3126"/>
<stop offset="1" stop-color="#670317"/>
</linearGradient>
<linearGradient id="paint69_linear" x1="361.925" y1="93.5186" x2="338.161" y2="71.3598" gradientUnits="userSpaceOnUse">
<stop stop-color="#EF3126"/>
<stop offset="1" stop-color="#670317"/>
</linearGradient>
<linearGradient id="paint70_linear" x1="424.753" y1="73.5361" x2="443.055" y2="66.8403" gradientUnits="userSpaceOnUse">
<stop stop-color="#EF3126"/>
<stop offset="1" stop-color="#670317"/>
</linearGradient>
<linearGradient id="paint71_linear" x1="467.058" y1="80.8497" x2="490.457" y2="72.2893" gradientUnits="userSpaceOnUse">
<stop stop-color="#EF3126"/>
<stop offset="1" stop-color="#670317"/>
</linearGradient>
<linearGradient id="paint72_linear" x1="584.951" y1="318.47" x2="534.853" y2="261.146" gradientUnits="userSpaceOnUse">
<stop stop-color="#9BAEE0"/>
<stop offset="1" stop-color="#7E90D8"/>
</linearGradient>
<linearGradient id="paint73_linear" x1="548.651" y1="285.617" x2="550.046" y2="272.567" gradientUnits="userSpaceOnUse">
<stop stop-color="#009DA8"/>
<stop offset="0.8933" stop-color="#005DB7"/>
</linearGradient>
<linearGradient id="paint74_linear" x1="553.45" y1="281.477" x2="553.45" y2="268.694" gradientUnits="userSpaceOnUse">
<stop stop-color="#8090BE"/>
<stop offset="1" stop-color="#6678B7"/>
</linearGradient>
<linearGradient id="paint75_linear" x1="557.832" y1="276.164" x2="551.772" y2="271.895" gradientUnits="userSpaceOnUse">
<stop stop-color="#8090BE"/>
<stop offset="1" stop-color="#6678B7"/>
</linearGradient>
<linearGradient id="paint76_linear" x1="569.343" y1="287.093" x2="570.739" y2="274.042" gradientUnits="userSpaceOnUse">
<stop stop-color="#009DA8"/>
<stop offset="0.8933" stop-color="#005DB7"/>
</linearGradient>
<linearGradient id="paint77_linear" x1="574.142" y1="282.952" x2="574.142" y2="270.169" gradientUnits="userSpaceOnUse">
<stop stop-color="#8090BE"/>
<stop offset="1" stop-color="#6678B7"/>
</linearGradient>
<linearGradient id="paint78_linear" x1="578.525" y1="277.64" x2="572.464" y2="273.37" gradientUnits="userSpaceOnUse">
<stop stop-color="#8090BE"/>
<stop offset="1" stop-color="#6678B7"/>
</linearGradient>
<linearGradient id="paint79_linear" x1="668.458" y1="248.792" x2="565.352" y2="201.402" gradientUnits="userSpaceOnUse">
<stop stop-color="#438A98"/>
<stop offset="1" stop-color="#003343"/>
</linearGradient>
<linearGradient id="paint80_linear" x1="622.512" y1="248.717" x2="542.869" y2="213.391" gradientUnits="userSpaceOnUse">
<stop stop-color="#438A98"/>
<stop offset="1" stop-color="#003343"/>
</linearGradient>
<linearGradient id="paint81_linear" x1="516.309" y1="208.805" x2="609.036" y2="240.716" gradientUnits="userSpaceOnUse">
<stop stop-color="#9BAEE0"/>
<stop offset="1" stop-color="#7E90D8"/>
</linearGradient>
<linearGradient id="paint82_linear" x1="527.876" y1="226.831" x2="617.011" y2="248.72" gradientUnits="userSpaceOnUse">
<stop stop-color="#55172D"/>
<stop offset="1" stop-color="#1B0007"/>
</linearGradient>
<linearGradient id="paint83_linear" x1="576.112" y1="254.074" x2="604.293" y2="240.826" gradientUnits="userSpaceOnUse">
<stop stop-color="#EF3126"/>
<stop offset="1" stop-color="#670317"/>
</linearGradient>
<linearGradient id="paint84_linear" x1="578.805" y1="304.33" x2="544.281" y2="248.61" gradientUnits="userSpaceOnUse">
<stop stop-color="#BBC6EF" stop-opacity="0"/>
<stop offset="1" stop-color="#ACB8E7"/>
</linearGradient>
<linearGradient id="paint85_linear" x1="521.027" y1="219.788" x2="404.24" y2="116.07" gradientUnits="userSpaceOnUse">
<stop stop-color="#BBC6EF" stop-opacity="0"/>
<stop offset="1" stop-color="#ACB8E7"/>
</linearGradient>
<linearGradient id="paint86_linear" x1="458.373" y1="184.397" x2="458.373" y2="159.423" gradientUnits="userSpaceOnUse">
<stop stop-color="#BBC6EF" stop-opacity="0"/>
<stop offset="1" stop-color="#ACB8E7"/>
</linearGradient>
<linearGradient id="paint87_linear" x1="385.671" y1="178.589" x2="387.054" y2="165.654" gradientUnits="userSpaceOnUse">
<stop stop-color="#00BECA"/>
<stop offset="0.8933" stop-color="#0071D9"/>
</linearGradient>
<linearGradient id="paint88_linear" x1="390.428" y1="174.485" x2="390.428" y2="161.815" gradientUnits="userSpaceOnUse">
<stop stop-color="#9BAEE0"/>
<stop offset="1" stop-color="#7E90D8"/>
</linearGradient>
<linearGradient id="paint89_linear" x1="394.771" y1="169.22" x2="388.765" y2="164.988" gradientUnits="userSpaceOnUse">
<stop stop-color="#9BAEE0"/>
<stop offset="1" stop-color="#7E90D8"/>
</linearGradient>
<linearGradient id="paint90_linear" x1="406.18" y1="180.052" x2="407.563" y2="167.117" gradientUnits="userSpaceOnUse">
<stop stop-color="#00BECA"/>
<stop offset="0.8933" stop-color="#0071D9"/>
</linearGradient>
<linearGradient id="paint91_linear" x1="410.936" y1="175.948" x2="410.936" y2="163.278" gradientUnits="userSpaceOnUse">
<stop stop-color="#9BAEE0"/>
<stop offset="1" stop-color="#7E90D8"/>
</linearGradient>
<linearGradient id="paint92_linear" x1="415.28" y1="170.682" x2="409.273" y2="166.45" gradientUnits="userSpaceOnUse">
<stop stop-color="#9BAEE0"/>
<stop offset="1" stop-color="#7E90D8"/>
</linearGradient>
<linearGradient id="paint93_linear" x1="428.816" y1="180.801" x2="430.146" y2="168.369" gradientUnits="userSpaceOnUse">
<stop stop-color="#00BECA"/>
<stop offset="0.8933" stop-color="#0071D9"/>
</linearGradient>
<linearGradient id="paint94_linear" x1="433.388" y1="176.856" x2="433.388" y2="164.679" gradientUnits="userSpaceOnUse">
<stop stop-color="#9BAEE0"/>
<stop offset="1" stop-color="#7E90D8"/>
</linearGradient>
<linearGradient id="paint95_linear" x1="437.562" y1="171.796" x2="431.789" y2="167.729" gradientUnits="userSpaceOnUse">
<stop stop-color="#9BAEE0"/>
<stop offset="1" stop-color="#7E90D8"/>
</linearGradient>
<linearGradient id="paint96_linear" x1="449.832" y1="182.179" x2="451.161" y2="169.748" gradientUnits="userSpaceOnUse">
<stop stop-color="#00BECA"/>
<stop offset="0.8933" stop-color="#0071D9"/>
</linearGradient>
<linearGradient id="paint97_linear" x1="454.403" y1="178.235" x2="454.403" y2="166.058" gradientUnits="userSpaceOnUse">
<stop stop-color="#9BAEE0"/>
<stop offset="1" stop-color="#7E90D8"/>
</linearGradient>
<linearGradient id="paint98_linear" x1="458.578" y1="173.174" x2="452.805" y2="169.108" gradientUnits="userSpaceOnUse">
<stop stop-color="#9BAEE0"/>
<stop offset="1" stop-color="#7E90D8"/>
</linearGradient>
<linearGradient id="paint99_linear" x1="469.169" y1="183.558" x2="470.498" y2="171.127" gradientUnits="userSpaceOnUse">
<stop stop-color="#00BECA"/>
<stop offset="0.8933" stop-color="#0071D9"/>
</linearGradient>
<linearGradient id="paint100_linear" x1="473.741" y1="179.614" x2="473.741" y2="167.437" gradientUnits="userSpaceOnUse">
<stop stop-color="#9BAEE0"/>
<stop offset="1" stop-color="#7E90D8"/>
</linearGradient>
<linearGradient id="paint101_linear" x1="477.915" y1="174.553" x2="472.142" y2="170.486" gradientUnits="userSpaceOnUse">
<stop stop-color="#9BAEE0"/>
<stop offset="1" stop-color="#7E90D8"/>
</linearGradient>
<linearGradient id="paint102_linear" x1="488.506" y1="184.937" x2="489.836" y2="172.505" gradientUnits="userSpaceOnUse">
<stop stop-color="#00BECA"/>
<stop offset="0.8933" stop-color="#0071D9"/>
</linearGradient>
<linearGradient id="paint103_linear" x1="493.078" y1="180.993" x2="493.078" y2="168.816" gradientUnits="userSpaceOnUse">
<stop stop-color="#9BAEE0"/>
<stop offset="1" stop-color="#7E90D8"/>
</linearGradient>
<linearGradient id="paint104_linear" x1="497.252" y1="175.932" x2="491.479" y2="171.865" gradientUnits="userSpaceOnUse">
<stop stop-color="#9BAEE0"/>
<stop offset="1" stop-color="#7E90D8"/>
</linearGradient>
<linearGradient id="paint105_linear" x1="510.321" y1="186.714" x2="511.651" y2="174.282" gradientUnits="userSpaceOnUse">
<stop stop-color="#00BECA"/>
<stop offset="0.8933" stop-color="#0071D9"/>
</linearGradient>
<linearGradient id="paint106_linear" x1="514.893" y1="182.77" x2="514.893" y2="170.593" gradientUnits="userSpaceOnUse">
<stop stop-color="#9BAEE0"/>
<stop offset="1" stop-color="#7E90D8"/>
</linearGradient>
<linearGradient id="paint107_linear" x1="519.068" y1="177.709" x2="513.294" y2="173.642" gradientUnits="userSpaceOnUse">
<stop stop-color="#9BAEE0"/>
<stop offset="1" stop-color="#7E90D8"/>
</linearGradient>
<linearGradient id="paint108_linear" x1="467.771" y1="150.228" x2="471.438" y2="120.894" gradientUnits="userSpaceOnUse">
<stop stop-color="#438A98"/>
<stop offset="1" stop-color="#003343"/>
</linearGradient>
<linearGradient id="paint109_linear" x1="602.822" y1="151.745" x2="522.553" y2="121.22" gradientUnits="userSpaceOnUse">
<stop stop-color="#438A98"/>
<stop offset="1" stop-color="#003343"/>
</linearGradient>
<linearGradient id="paint110_linear" x1="590.166" y1="137.424" x2="589.45" y2="144.409" gradientUnits="userSpaceOnUse">
<stop stop-color="#438A98"/>
<stop offset="0.00330269" stop-color="#428997"/>
<stop offset="0.0749" stop-color="#2D6E7D"/>
<stop offset="0.1562" stop-color="#1D5867"/>
<stop offset="0.2522" stop-color="#104757"/>
<stop offset="0.3709" stop-color="#073C4B"/>
<stop offset="0.5375" stop-color="#013545"/>
<stop offset="1" stop-color="#003343"/>
</linearGradient>
<linearGradient id="paint111_linear" x1="309.441" y1="187.713" x2="372.649" y2="188.724" gradientUnits="userSpaceOnUse">
<stop stop-color="#ECE7DF"/>
<stop offset="0.2058" stop-color="#EBE9E8"/>
<stop offset="1" stop-color="#DEDAE8"/>
</linearGradient>
<linearGradient id="paint112_linear" x1="346.038" y1="179.643" x2="339.686" y2="153.162" gradientUnits="userSpaceOnUse">
<stop stop-color="#BBC6EF" stop-opacity="0"/>
<stop offset="0.5516" stop-color="#ACB8E7"/>
</linearGradient>
<linearGradient id="paint113_linear" x1="529.931" y1="188.634" x2="531.215" y2="176.629" gradientUnits="userSpaceOnUse">
<stop stop-color="#009DA8"/>
<stop offset="0.8933" stop-color="#005DB7"/>
</linearGradient>
<linearGradient id="paint114_linear" x1="534.346" y1="184.825" x2="534.346" y2="173.067" gradientUnits="userSpaceOnUse">
<stop stop-color="#8090BE"/>
<stop offset="1" stop-color="#6678B7"/>
</linearGradient>
<linearGradient id="paint115_linear" x1="538.377" y1="179.938" x2="532.802" y2="176.011" gradientUnits="userSpaceOnUse">
<stop stop-color="#8090BE"/>
<stop offset="1" stop-color="#6678B7"/>
</linearGradient>
<linearGradient id="paint116_linear" x1="267.23" y1="96.7953" x2="523.833" y2="185.103" gradientUnits="userSpaceOnUse">
<stop stop-color="#9BAEE0"/>
<stop offset="1" stop-color="#7E90D8"/>
</linearGradient>
<linearGradient id="paint117_linear" x1="528.31" y1="168.225" x2="566.847" y2="156.825" gradientUnits="userSpaceOnUse">
<stop stop-color="#EF3126"/>
<stop offset="1" stop-color="#670317"/>
</linearGradient>
<linearGradient id="paint118_linear" x1="276.739" y1="105.18" x2="520.385" y2="189.029" gradientUnits="userSpaceOnUse">
<stop stop-color="#772241"/>
<stop offset="1" stop-color="#3F001B"/>
</linearGradient>
<linearGradient id="paint119_linear" x1="276.739" y1="105.18" x2="520.385" y2="189.029" gradientUnits="userSpaceOnUse">
<stop stop-color="#772241"/>
<stop offset="1" stop-color="#3F001B"/>
</linearGradient>
<linearGradient id="paint120_linear" x1="330.238" y1="169.041" x2="316.777" y2="142.73" gradientUnits="userSpaceOnUse">
<stop stop-color="#772241" stop-opacity="0"/>
<stop offset="1" stop-color="#3F001B"/>
</linearGradient>
<linearGradient id="paint121_linear" x1="432.543" y1="149.13" x2="367.403" y2="130.619" gradientUnits="userSpaceOnUse">
<stop stop-color="#772241" stop-opacity="0"/>
<stop offset="1" stop-color="#3F001B"/>
</linearGradient>
<linearGradient id="paint122_linear" x1="399.047" y1="145.406" x2="405.38" y2="112.722" gradientUnits="userSpaceOnUse">
<stop stop-color="#772241" stop-opacity="0"/>
<stop offset="1" stop-color="#3F001B"/>
</linearGradient>
<linearGradient id="paint123_linear" x1="372.795" y1="149.869" x2="354.785" y2="114.669" gradientUnits="userSpaceOnUse">
<stop stop-color="#772241" stop-opacity="0"/>
<stop offset="1" stop-color="#3F001B"/>
</linearGradient>
<linearGradient id="paint124_linear" x1="371.43" y1="149.884" x2="353.805" y2="115.435" gradientUnits="userSpaceOnUse">
<stop stop-color="#EF3126"/>
<stop offset="1" stop-color="#670317"/>
</linearGradient>
<linearGradient id="paint125_linear" x1="310.077" y1="179.01" x2="298.369" y2="156.125" gradientUnits="userSpaceOnUse">
<stop stop-color="#772241" stop-opacity="0"/>
<stop offset="1" stop-color="#3F001B"/>
</linearGradient>
<linearGradient id="paint126_linear" x1="308.866" y1="179.626" x2="297.309" y2="157.037" gradientUnits="userSpaceOnUse">
<stop stop-color="#EF3126"/>
<stop offset="1" stop-color="#670317"/>
</linearGradient>
<linearGradient id="paint127_linear" x1="350.987" y1="158.761" x2="335.687" y2="128.856" gradientUnits="userSpaceOnUse">
<stop stop-color="#772241" stop-opacity="0"/>
<stop offset="1" stop-color="#3F001B"/>
</linearGradient>
<linearGradient id="paint128_linear" x1="350.213" y1="159.142" x2="334.987" y2="129.383" gradientUnits="userSpaceOnUse">
<stop stop-color="#EF3126"/>
<stop offset="1" stop-color="#670317"/>
</linearGradient>
<linearGradient id="paint129_linear" x1="329.465" y1="169.424" x2="316.07" y2="143.243" gradientUnits="userSpaceOnUse">
<stop stop-color="#EF3126"/>
<stop offset="1" stop-color="#670317"/>
</linearGradient>
<linearGradient id="paint130_linear" x1="347.244" y1="85.2015" x2="370.029" y2="114.308" gradientUnits="userSpaceOnUse">
<stop stop-color="#438A98"/>
<stop offset="1" stop-color="#003343"/>
</linearGradient>
<linearGradient id="paint131_linear" x1="341.668" y1="108.112" x2="362.349" y2="117.997" gradientUnits="userSpaceOnUse">
<stop stop-color="#438A98"/>
<stop offset="1" stop-color="#003343"/>
</linearGradient>
<linearGradient id="paint132_linear" x1="360.248" y1="172.313" x2="372.653" y2="162.559" gradientUnits="userSpaceOnUse">
<stop stop-color="#80D7C0"/>
<stop offset="1" stop-color="#0083D9"/>
</linearGradient>
<linearGradient id="paint133_linear" x1="361.389" y1="165.268" x2="366.177" y2="161.503" gradientUnits="userSpaceOnUse">
<stop stop-color="#9BAEE0"/>
<stop offset="1" stop-color="#7E90D8"/>
</linearGradient>
<linearGradient id="paint134_linear" x1="358.692" y1="173.032" x2="366.426" y2="166.95" gradientUnits="userSpaceOnUse">
<stop stop-color="#9BAEE0"/>
<stop offset="1" stop-color="#7E90D8"/>
</linearGradient>
<linearGradient id="paint135_linear" x1="351.084" y1="176.712" x2="363.488" y2="166.957" gradientUnits="userSpaceOnUse">
<stop stop-color="#80D7C0"/>
<stop offset="1" stop-color="#0083D9"/>
</linearGradient>
<linearGradient id="paint136_linear" x1="352.224" y1="169.667" x2="357.013" y2="165.901" gradientUnits="userSpaceOnUse">
<stop stop-color="#9BAEE0"/>
<stop offset="1" stop-color="#7E90D8"/>
</linearGradient>
<linearGradient id="paint137_linear" x1="349.527" y1="177.43" x2="357.262" y2="171.348" gradientUnits="userSpaceOnUse">
<stop stop-color="#9BAEE0"/>
<stop offset="1" stop-color="#7E90D8"/>
</linearGradient>
<linearGradient id="paint138_linear" x1="341.616" y1="181.021" x2="352.605" y2="172.379" gradientUnits="userSpaceOnUse">
<stop stop-color="#80D7C0"/>
<stop offset="1" stop-color="#0083D9"/>
</linearGradient>
<linearGradient id="paint139_linear" x1="342.626" y1="174.779" x2="346.868" y2="171.443" gradientUnits="userSpaceOnUse">
<stop stop-color="#9BAEE0"/>
<stop offset="1" stop-color="#7E90D8"/>
</linearGradient>
<linearGradient id="paint140_linear" x1="340.237" y1="181.658" x2="347.089" y2="176.27" gradientUnits="userSpaceOnUse">
<stop stop-color="#9BAEE0"/>
<stop offset="1" stop-color="#7E90D8"/>
</linearGradient>
<linearGradient id="paint141_linear" x1="332.794" y1="185.092" x2="343.784" y2="176.45" gradientUnits="userSpaceOnUse">
<stop stop-color="#80D7C0"/>
<stop offset="1" stop-color="#0083D9"/>
</linearGradient>
<linearGradient id="paint142_linear" x1="333.804" y1="178.85" x2="338.046" y2="175.514" gradientUnits="userSpaceOnUse">
<stop stop-color="#9BAEE0"/>
<stop offset="1" stop-color="#7E90D8"/>
</linearGradient>
<linearGradient id="paint143_linear" x1="331.415" y1="185.729" x2="338.267" y2="180.34" gradientUnits="userSpaceOnUse">
<stop stop-color="#9BAEE0"/>
<stop offset="1" stop-color="#7E90D8"/>
</linearGradient>
<linearGradient id="paint144_linear" x1="324.948" y1="188.674" x2="334.726" y2="180.984" gradientUnits="userSpaceOnUse">
<stop stop-color="#80D7C0"/>
<stop offset="1" stop-color="#0083D9"/>
</linearGradient>
<linearGradient id="paint145_linear" x1="325.847" y1="183.121" x2="329.622" y2="180.152" gradientUnits="userSpaceOnUse">
<stop stop-color="#9BAEE0"/>
<stop offset="1" stop-color="#7E90D8"/>
</linearGradient>
<linearGradient id="paint146_linear" x1="323.721" y1="189.24" x2="329.818" y2="184.445" gradientUnits="userSpaceOnUse">
<stop stop-color="#9BAEE0"/>
<stop offset="1" stop-color="#7E90D8"/>
</linearGradient>
<linearGradient id="paint147_linear" x1="317.173" y1="192.524" x2="326.951" y2="184.834" gradientUnits="userSpaceOnUse">
<stop stop-color="#80D7C0"/>
<stop offset="1" stop-color="#0083D9"/>
</linearGradient>
<linearGradient id="paint148_linear" x1="318.072" y1="186.97" x2="321.846" y2="184.002" gradientUnits="userSpaceOnUse">
<stop stop-color="#9BAEE0"/>
<stop offset="1" stop-color="#7E90D8"/>
</linearGradient>
<linearGradient id="paint149_linear" x1="315.946" y1="193.09" x2="322.043" y2="188.296" gradientUnits="userSpaceOnUse">
<stop stop-color="#9BAEE0"/>
<stop offset="1" stop-color="#7E90D8"/>
</linearGradient>
<linearGradient id="paint150_linear" x1="529.076" y1="211.95" x2="503.006" y2="193.132" gradientUnits="userSpaceOnUse">
<stop stop-color="#BBC6EF" stop-opacity="0"/>
<stop offset="1" stop-color="#ACB8E7"/>
</linearGradient>
<linearGradient id="paint151_linear" x1="247.169" y1="268.192" x2="310.113" y2="213.597" gradientUnits="userSpaceOnUse">
<stop stop-color="#772241"/>
<stop offset="1" stop-color="#3F001B"/>
</linearGradient>
<linearGradient id="paint152_linear" x1="299.509" y1="256.786" x2="354.921" y2="313.591" gradientUnits="userSpaceOnUse">
<stop stop-color="#BBC6EF"/>
<stop offset="1" stop-color="#ACB8E7"/>
</linearGradient>
<linearGradient id="paint153_linear" x1="337.094" y1="275.69" x2="310.781" y2="254.045" gradientUnits="userSpaceOnUse">
<stop stop-color="#BBC6EF" stop-opacity="0"/>
<stop offset="1" stop-color="#ACB8E7"/>
</linearGradient>
<linearGradient id="paint154_linear" x1="266.684" y1="284.74" x2="312.929" y2="284.981" gradientUnits="userSpaceOnUse">
<stop stop-color="#ECE7DF"/>
<stop offset="0.2058" stop-color="#EBE9E8"/>
<stop offset="1" stop-color="#DEDAE8"/>
</linearGradient>
<linearGradient id="paint155_linear" x1="299.467" y1="295.863" x2="280.921" y2="218.548" gradientUnits="userSpaceOnUse">
<stop stop-color="#BBC6EF" stop-opacity="0"/>
<stop offset="1" stop-color="#ACB8E7"/>
</linearGradient>
<linearGradient id="paint156_linear" x1="324.574" y1="244.958" x2="296.956" y2="208.027" gradientUnits="userSpaceOnUse">
<stop stop-color="#438A98"/>
<stop offset="1" stop-color="#003343"/>
</linearGradient>
<linearGradient id="paint157_linear" x1="246.924" y1="230.266" x2="287.545" y2="271.91" gradientUnits="userSpaceOnUse">
<stop stop-color="#EBE9F7"/>
<stop offset="1" stop-color="#DEDAE8"/>
</linearGradient>
<linearGradient id="paint158_linear" x1="307.642" y1="234.03" x2="333.952" y2="261.002" gradientUnits="userSpaceOnUse">
<stop stop-color="#BBC6EF"/>
<stop offset="1" stop-color="#ACB8E7"/>
</linearGradient>
<linearGradient id="paint159_linear" x1="281.178" y1="177.006" x2="289.545" y2="209.98" gradientUnits="userSpaceOnUse">
<stop stop-color="#438A98"/>
<stop offset="1" stop-color="#003343"/>
</linearGradient>
<linearGradient id="paint160_linear" x1="265.468" y1="207.408" x2="279.003" y2="225.541" gradientUnits="userSpaceOnUse">
<stop stop-color="#438A98"/>
<stop offset="1" stop-color="#003343"/>
</linearGradient>
<linearGradient id="paint161_linear" x1="275.488" y1="298.685" x2="287.367" y2="290.091" gradientUnits="userSpaceOnUse">
<stop stop-color="#80D7C0"/>
<stop offset="1" stop-color="#0083D9"/>
</linearGradient>
<linearGradient id="paint162_linear" x1="276.809" y1="292.187" x2="281.395" y2="288.87" gradientUnits="userSpaceOnUse">
<stop stop-color="#9BAEE0"/>
<stop offset="1" stop-color="#7E90D8"/>
</linearGradient>
<linearGradient id="paint163_linear" x1="274.016" y1="299.294" x2="281.423" y2="293.935" gradientUnits="userSpaceOnUse">
<stop stop-color="#9BAEE0"/>
<stop offset="1" stop-color="#7E90D8"/>
</linearGradient>
<linearGradient id="paint164_linear" x1="283.582" y1="294.159" x2="295.461" y2="285.566" gradientUnits="userSpaceOnUse">
<stop stop-color="#80D7C0"/>
<stop offset="1" stop-color="#0083D9"/>
</linearGradient>
<linearGradient id="paint165_linear" x1="284.903" y1="287.661" x2="289.489" y2="284.344" gradientUnits="userSpaceOnUse">
<stop stop-color="#9BAEE0"/>
<stop offset="1" stop-color="#7E90D8"/>
</linearGradient>
<linearGradient id="paint166_linear" x1="282.11" y1="294.768" x2="289.517" y2="289.41" gradientUnits="userSpaceOnUse">
<stop stop-color="#9BAEE0"/>
<stop offset="1" stop-color="#7E90D8"/>
</linearGradient>
<linearGradient id="paint167_linear" x1="291.676" y1="289.634" x2="303.554" y2="281.04" gradientUnits="userSpaceOnUse">
<stop stop-color="#80D7C0"/>
<stop offset="1" stop-color="#0083D9"/>
</linearGradient>
<linearGradient id="paint168_linear" x1="292.997" y1="283.136" x2="297.582" y2="279.819" gradientUnits="userSpaceOnUse">
<stop stop-color="#9BAEE0"/>
<stop offset="1" stop-color="#7E90D8"/>
</linearGradient>
<linearGradient id="paint169_linear" x1="290.204" y1="290.242" x2="297.61" y2="284.884" gradientUnits="userSpaceOnUse">
<stop stop-color="#9BAEE0"/>
<stop offset="1" stop-color="#7E90D8"/>
</linearGradient>
<linearGradient id="paint170_linear" x1="299.77" y1="285.108" x2="311.648" y2="276.514" gradientUnits="userSpaceOnUse">
<stop stop-color="#80D7C0"/>
<stop offset="1" stop-color="#0083D9"/>
</linearGradient>
<linearGradient id="paint171_linear" x1="301.091" y1="278.61" x2="305.676" y2="275.293" gradientUnits="userSpaceOnUse">
<stop stop-color="#9BAEE0"/>
<stop offset="1" stop-color="#7E90D8"/>
</linearGradient>
<linearGradient id="paint172_linear" x1="298.298" y1="285.717" x2="305.704" y2="280.358" gradientUnits="userSpaceOnUse">
<stop stop-color="#9BAEE0"/>
<stop offset="1" stop-color="#7E90D8"/>
</linearGradient>
<linearGradient id="paint173_linear" x1="333.724" y1="268.072" x2="358.532" y2="268.554" gradientUnits="userSpaceOnUse">
<stop stop-color="#ECE7DF"/>
<stop offset="0.2058" stop-color="#EBE9E8"/>
<stop offset="1" stop-color="#DEDAE8"/>
</linearGradient>
<linearGradient id="paint174_linear" x1="349.101" y1="251.693" x2="342.731" y2="225.019" gradientUnits="userSpaceOnUse">
<stop stop-color="#BBC6EF" stop-opacity="0"/>
<stop offset="1" stop-color="#ACB8E7"/>
</linearGradient>
<linearGradient id="paint175_linear" x1="337.995" y1="218.765" x2="441.323" y2="302.584" gradientUnits="userSpaceOnUse">
<stop stop-color="#EBE9F7"/>
<stop offset="1" stop-color="#A9B8EF"/>
</linearGradient>
<linearGradient id="paint176_linear" x1="400.236" y1="272.611" x2="393.187" y2="213.453" gradientUnits="userSpaceOnUse">
<stop stop-color="#BBC6EF" stop-opacity="0"/>
<stop offset="1" stop-color="#ACB8E7"/>
</linearGradient>
<linearGradient id="paint177_linear" x1="333.799" y1="176.131" x2="362.22" y2="198.651" gradientUnits="userSpaceOnUse">
<stop stop-color="#438A98"/>
<stop offset="1" stop-color="#003343"/>
</linearGradient>
<linearGradient id="paint178_linear" x1="346.34" y1="198.048" x2="451.928" y2="208.995" gradientUnits="userSpaceOnUse">
<stop stop-color="#438A98"/>
<stop offset="1" stop-color="#003343"/>
</linearGradient>
<linearGradient id="paint179_linear" x1="317.848" y1="218.302" x2="429.358" y2="229.863" gradientUnits="userSpaceOnUse">
<stop stop-color="#EBE9F7"/>
<stop offset="1" stop-color="#DEDAE8"/>
</linearGradient>
<linearGradient id="paint180_linear" x1="344.29" y1="261.462" x2="462.126" y2="159.258" gradientUnits="userSpaceOnUse">
<stop stop-color="#772241"/>
<stop offset="1" stop-color="#3F001B"/>
</linearGradient>
<linearGradient id="paint181_linear" x1="434.48" y1="237.947" x2="360.456" y2="216.912" gradientUnits="userSpaceOnUse">
<stop stop-color="#772241" stop-opacity="0"/>
<stop offset="1" stop-color="#3F001B"/>
</linearGradient>
<linearGradient id="paint182_linear" x1="334.269" y1="243.401" x2="321.022" y2="235.693" gradientUnits="userSpaceOnUse">
<stop stop-color="#772241" stop-opacity="0"/>
<stop offset="1" stop-color="#3F001B"/>
</linearGradient>
<linearGradient id="paint183_linear" x1="333.115" y1="240.176" x2="317.158" y2="235.359" gradientUnits="userSpaceOnUse">
<stop stop-color="#EF3126"/>
<stop offset="1" stop-color="#670317"/>
</linearGradient>
<linearGradient id="paint184_linear" x1="359.772" y1="233.962" x2="345.918" y2="206.885" gradientUnits="userSpaceOnUse">
<stop stop-color="#772241" stop-opacity="0"/>
<stop offset="1" stop-color="#3F001B"/>
</linearGradient>
<linearGradient id="paint185_linear" x1="357.907" y1="234.424" x2="343.776" y2="206.805" gradientUnits="userSpaceOnUse">
<stop stop-color="#EF3126"/>
<stop offset="1" stop-color="#670317"/>
</linearGradient>
<linearGradient id="paint186_linear" x1="331.706" y1="196.823" x2="353.022" y2="205.253" gradientUnits="userSpaceOnUse">
<stop stop-color="#438A98"/>
<stop offset="1" stop-color="#003343"/>
</linearGradient>
<linearGradient id="paint187_linear" x1="377.965" y1="277.305" x2="379.479" y2="263.142" gradientUnits="userSpaceOnUse">
<stop stop-color="#00BECA"/>
<stop offset="0.8933" stop-color="#0071D9"/>
</linearGradient>
<linearGradient id="paint188_linear" x1="383.173" y1="272.812" x2="383.173" y2="258.939" gradientUnits="userSpaceOnUse">
<stop stop-color="#9BAEE0"/>
<stop offset="1" stop-color="#7E90D8"/>
</linearGradient>
<linearGradient id="paint189_linear" x1="387.929" y1="267.046" x2="381.352" y2="262.413" gradientUnits="userSpaceOnUse">
<stop stop-color="#9BAEE0"/>
<stop offset="1" stop-color="#7E90D8"/>
</linearGradient>
<linearGradient id="paint190_linear" x1="400.42" y1="278.906" x2="401.935" y2="264.743" gradientUnits="userSpaceOnUse">
<stop stop-color="#00BECA"/>
<stop offset="0.8933" stop-color="#0071D9"/>
</linearGradient>
<linearGradient id="paint191_linear" x1="405.629" y1="274.413" x2="405.629" y2="260.54" gradientUnits="userSpaceOnUse">
<stop stop-color="#9BAEE0"/>
<stop offset="1" stop-color="#7E90D8"/>
</linearGradient>
<linearGradient id="paint192_linear" x1="410.385" y1="268.647" x2="403.808" y2="264.014" gradientUnits="userSpaceOnUse">
<stop stop-color="#9BAEE0"/>
<stop offset="1" stop-color="#7E90D8"/>
</linearGradient>
<linearGradient id="paint193_linear" x1="347.586" y1="270.905" x2="359.99" y2="261.15" gradientUnits="userSpaceOnUse">
<stop stop-color="#80D7C0"/>
<stop offset="1" stop-color="#0083D9"/>
</linearGradient>
<linearGradient id="paint194_linear" x1="348.726" y1="263.86" x2="353.515" y2="260.095" gradientUnits="userSpaceOnUse">
<stop stop-color="#9BAEE0"/>
<stop offset="1" stop-color="#7E90D8"/>
</linearGradient>
<linearGradient id="paint195_linear" x1="346.029" y1="271.624" x2="353.763" y2="265.541" gradientUnits="userSpaceOnUse">
<stop stop-color="#9BAEE0"/>
<stop offset="1" stop-color="#7E90D8"/>
</linearGradient>
<linearGradient id="paint196_linear" x1="338.978" y1="275.5" x2="351.382" y2="265.746" gradientUnits="userSpaceOnUse">
<stop stop-color="#80D7C0"/>
<stop offset="1" stop-color="#0083D9"/>
</linearGradient>
<linearGradient id="paint197_linear" x1="340.118" y1="268.455" x2="344.906" y2="264.69" gradientUnits="userSpaceOnUse">
<stop stop-color="#9BAEE0"/>
<stop offset="1" stop-color="#7E90D8"/>
</linearGradient>
<linearGradient id="paint198_linear" x1="337.421" y1="276.219" x2="345.155" y2="270.137" gradientUnits="userSpaceOnUse">
<stop stop-color="#9BAEE0"/>
<stop offset="1" stop-color="#7E90D8"/>
</linearGradient>
<linearGradient id="paint199_linear" x1="430.956" y1="230.372" x2="593.134" y2="326.073" gradientUnits="userSpaceOnUse">
<stop stop-color="#BBC6EF"/>
<stop offset="1" stop-color="#ACB8E7"/>
</linearGradient>
<linearGradient id="paint200_linear" x1="535.592" y1="305.136" x2="428.652" y2="155.483" gradientUnits="userSpaceOnUse">
<stop stop-color="#BBC6EF" stop-opacity="0"/>
<stop offset="1" stop-color="#ACB8E7"/>
</linearGradient>
<linearGradient id="paint201_linear" x1="536.032" y1="275.677" x2="491.715" y2="192.18" gradientUnits="userSpaceOnUse">
<stop stop-color="#BBC6EF" stop-opacity="0"/>
<stop offset="1" stop-color="#ACB8E7"/>
</linearGradient>
<linearGradient id="paint202_linear" x1="529.275" y1="279.264" x2="484.957" y2="195.766" gradientUnits="userSpaceOnUse">
<stop stop-color="#BBC6EF" stop-opacity="0"/>
<stop offset="1" stop-color="#ACB8E7"/>
</linearGradient>
<linearGradient id="paint203_linear" x1="409.082" y1="228.076" x2="436.059" y2="300.337" gradientUnits="userSpaceOnUse">
<stop stop-color="#EBE9F7"/>
<stop offset="1" stop-color="#DEDAE8"/>
</linearGradient>
<linearGradient id="paint204_linear" x1="420.841" y1="267.732" x2="437.269" y2="271.338" gradientUnits="userSpaceOnUse">
<stop stop-color="#EBE9F7"/>
<stop offset="1" stop-color="#DEDAE8"/>
</linearGradient>
<linearGradient id="paint205_linear" x1="427.359" y1="275.317" x2="420.133" y2="229.795" gradientUnits="userSpaceOnUse">
<stop stop-color="#BBC6EF" stop-opacity="0"/>
<stop offset="1" stop-color="#ACB8E7"/>
</linearGradient>
<linearGradient id="paint206_linear" x1="486.206" y1="212.12" x2="560.119" y2="230.271" gradientUnits="userSpaceOnUse">
<stop stop-color="#772241"/>
<stop offset="1" stop-color="#3F001B"/>
</linearGradient>
<linearGradient id="paint207_linear" x1="398.361" y1="202.515" x2="482.66" y2="211.254" gradientUnits="userSpaceOnUse">
<stop stop-color="#438A98"/>
<stop offset="1" stop-color="#003343"/>
</linearGradient>
<linearGradient id="paint208_linear" x1="419.092" y1="198.356" x2="566.17" y2="245.883" gradientUnits="userSpaceOnUse">
<stop stop-color="#C6CEEF"/>
<stop offset="1" stop-color="#ACB8E7"/>
</linearGradient>
<linearGradient id="paint209_linear" x1="391.737" y1="234.796" x2="417.011" y2="237.417" gradientUnits="userSpaceOnUse">
<stop stop-color="#ECE7DF"/>
<stop offset="0.2058" stop-color="#EBE9E8"/>
<stop offset="1" stop-color="#DEDAE8"/>
</linearGradient>
<linearGradient id="paint210_linear" x1="462.17" y1="185.19" x2="512.389" y2="179.53" gradientUnits="userSpaceOnUse">
<stop stop-color="#438A98"/>
<stop offset="1" stop-color="#003343"/>
</linearGradient>
<linearGradient id="paint211_linear" x1="478.854" y1="173.494" x2="501.976" y2="178.793" gradientUnits="userSpaceOnUse">
<stop stop-color="#438A98"/>
<stop offset="1" stop-color="#003343"/>
</linearGradient>
<linearGradient id="paint212_linear" x1="453.296" y1="272.452" x2="454.811" y2="258.289" gradientUnits="userSpaceOnUse">
<stop stop-color="#00BECA"/>
<stop offset="0.8933" stop-color="#0071D9"/>
</linearGradient>
<linearGradient id="paint213_linear" x1="458.504" y1="267.959" x2="458.504" y2="254.086" gradientUnits="userSpaceOnUse">
<stop stop-color="#9BAEE0"/>
<stop offset="1" stop-color="#7E90D8"/>
</linearGradient>
<linearGradient id="paint214_linear" x1="463.26" y1="262.193" x2="456.683" y2="257.56" gradientUnits="userSpaceOnUse">
<stop stop-color="#9BAEE0"/>
<stop offset="1" stop-color="#7E90D8"/>
</linearGradient>
<linearGradient id="paint215_linear" x1="475.326" y1="274.023" x2="476.841" y2="259.86" gradientUnits="userSpaceOnUse">
<stop stop-color="#00BECA"/>
<stop offset="0.8933" stop-color="#0071D9"/>
</linearGradient>
<linearGradient id="paint216_linear" x1="480.535" y1="269.53" x2="480.535" y2="255.657" gradientUnits="userSpaceOnUse">
<stop stop-color="#9BAEE0"/>
<stop offset="1" stop-color="#7E90D8"/>
</linearGradient>
<linearGradient id="paint217_linear" x1="485.29" y1="263.764" x2="478.713" y2="259.131" gradientUnits="userSpaceOnUse">
<stop stop-color="#9BAEE0"/>
<stop offset="1" stop-color="#7E90D8"/>
</linearGradient>
<linearGradient id="paint218_linear" x1="497.357" y1="275.594" x2="498.871" y2="261.431" gradientUnits="userSpaceOnUse">
<stop stop-color="#00BECA"/>
<stop offset="0.8933" stop-color="#0071D9"/>
</linearGradient>
<linearGradient id="paint219_linear" x1="502.565" y1="271.101" x2="502.565" y2="257.228" gradientUnits="userSpaceOnUse">
<stop stop-color="#9BAEE0"/>
<stop offset="1" stop-color="#7E90D8"/>
</linearGradient>
<linearGradient id="paint220_linear" x1="507.321" y1="265.335" x2="500.744" y2="260.702" gradientUnits="userSpaceOnUse">
<stop stop-color="#9BAEE0"/>
<stop offset="1" stop-color="#7E90D8"/>
</linearGradient>
<linearGradient id="paint221_linear" x1="519.387" y1="277.165" x2="520.902" y2="263.002" gradientUnits="userSpaceOnUse">
<stop stop-color="#00BECA"/>
<stop offset="0.8933" stop-color="#0071D9"/>
</linearGradient>
<linearGradient id="paint222_linear" x1="524.595" y1="272.671" x2="524.595" y2="258.799" gradientUnits="userSpaceOnUse">
<stop stop-color="#9BAEE0"/>
<stop offset="1" stop-color="#7E90D8"/>
</linearGradient>
<linearGradient id="paint223_linear" x1="529.351" y1="266.906" x2="522.774" y2="262.273" gradientUnits="userSpaceOnUse">
<stop stop-color="#9BAEE0"/>
<stop offset="1" stop-color="#7E90D8"/>
</linearGradient>
<linearGradient id="paint224_linear" x1="527.997" y1="170.309" x2="534.33" y2="137.625" gradientUnits="userSpaceOnUse">
<stop stop-color="#772241" stop-opacity="0"/>
<stop offset="1" stop-color="#3F001B"/>
</linearGradient>
<linearGradient id="paint225_linear" x1="542.467" y1="158.681" x2="582.639" y2="158.681" gradientUnits="userSpaceOnUse">
<stop stop-color="#EF3126"/>
<stop offset="1" stop-color="#670317"/>
</linearGradient>
<linearGradient id="paint226_linear" x1="516.244" y1="161.685" x2="537.952" y2="150.474" gradientUnits="userSpaceOnUse">
<stop stop-color="#EF3126"/>
<stop offset="1" stop-color="#670317"/>
</linearGradient>
<linearGradient id="paint227_linear" x1="431.694" y1="151.755" x2="438.021" y2="119.095" gradientUnits="userSpaceOnUse">
<stop stop-color="#772241" stop-opacity="0"/>
<stop offset="1" stop-color="#3F001B"/>
</linearGradient>
<linearGradient id="paint228_linear" x1="463.343" y1="157.861" x2="469.657" y2="125.272" gradientUnits="userSpaceOnUse">
<stop stop-color="#772241" stop-opacity="0"/>
<stop offset="1" stop-color="#3F001B"/>
</linearGradient>
<linearGradient id="paint229_linear" x1="497.673" y1="164.475" x2="503.976" y2="131.941" gradientUnits="userSpaceOnUse">
<stop stop-color="#772241" stop-opacity="0"/>
<stop offset="1" stop-color="#3F001B"/>
</linearGradient>
<linearGradient id="paint230_linear" x1="490.956" y1="161.006" x2="501.654" y2="145.938" gradientUnits="userSpaceOnUse">
<stop stop-color="#EF3126"/>
<stop offset="1" stop-color="#670317"/>
</linearGradient>
<linearGradient id="paint231_linear" x1="463.521" y1="158.909" x2="465.662" y2="143.787" gradientUnits="userSpaceOnUse">
<stop stop-color="#EF3126"/>
<stop offset="1" stop-color="#670317"/>
</linearGradient>
<linearGradient id="paint232_linear" x1="433.865" y1="155.711" x2="432.616" y2="136.179" gradientUnits="userSpaceOnUse">
<stop stop-color="#EF3126"/>
<stop offset="1" stop-color="#670317"/>
</linearGradient>
<linearGradient id="paint233_linear" x1="402.25" y1="152.74" x2="395.178" y2="127.024" gradientUnits="userSpaceOnUse">
<stop stop-color="#EF3126"/>
<stop offset="1" stop-color="#670317"/>
</linearGradient>
<linearGradient id="paint234_linear" x1="371.43" y1="149.884" x2="353.805" y2="115.435" gradientUnits="userSpaceOnUse">
<stop stop-color="#EF3126"/>
<stop offset="1" stop-color="#670317"/>
</linearGradient>
<linearGradient id="paint235_linear" x1="166.141" y1="405.713" x2="265.817" y2="501.627" gradientUnits="userSpaceOnUse">
<stop stop-color="#277CA0"/>
<stop offset="1" stop-color="#003058"/>
</linearGradient>
<linearGradient id="paint236_linear" x1="287.222" y1="335.428" x2="262.996" y2="422.219" gradientUnits="userSpaceOnUse">
<stop stop-color="#277CA0"/>
<stop offset="1" stop-color="#00518E"/>
</linearGradient>
<linearGradient id="paint237_linear" x1="134.925" y1="448.107" x2="99.5992" y2="572.069" gradientUnits="userSpaceOnUse">
<stop stop-color="#277CA0"/>
<stop offset="1" stop-color="#00518E"/>
</linearGradient>
<linearGradient id="paint238_linear" x1="215.653" y1="342.123" x2="288.231" y2="565.638" gradientUnits="userSpaceOnUse">
<stop stop-color="#277CA0"/>
<stop offset="1" stop-color="#00518E"/>
</linearGradient>
<radialGradient id="paint239_radial" cx="0" cy="0" r="1" gradientUnits="userSpaceOnUse" gradientTransform="translate(141.146 430.491) scale(190.04)">
<stop stop-color="#0091C6"/>
<stop offset="1" stop-color="#0091C6" stop-opacity="0"/>
</radialGradient>
<linearGradient id="paint240_linear" x1="75.5672" y1="372.063" x2="664.215" y2="519.466" gradientUnits="userSpaceOnUse">
<stop stop-color="#036D93"/>
<stop offset="1" stop-color="#002858"/>
</linearGradient>
<linearGradient id="paint241_linear" x1="359.908" y1="311.953" x2="509.241" y2="575.933" gradientUnits="userSpaceOnUse">
<stop stop-color="#036D93" stop-opacity="0"/>
<stop offset="1" stop-color="#002858"/>
</linearGradient>
<linearGradient id="paint242_linear" x1="317.098" y1="379.024" x2="356.278" y2="603.825" gradientUnits="userSpaceOnUse">
<stop stop-color="#036D93" stop-opacity="0"/>
<stop offset="1" stop-color="#002858"/>
</linearGradient>
<linearGradient id="paint243_linear" x1="430.906" y1="370.248" x2="453.546" y2="444.914" gradientUnits="userSpaceOnUse">
<stop stop-color="#036D93" stop-opacity="0"/>
<stop offset="1" stop-color="#002858"/>
</linearGradient>
<linearGradient id="paint244_linear" x1="461.649" y1="389.793" x2="480.917" y2="495.771" gradientUnits="userSpaceOnUse">
<stop stop-color="#036D93" stop-opacity="0"/>
<stop offset="1" stop-color="#002858"/>
</linearGradient>
<linearGradient id="paint245_linear" x1="437.837" y1="234.308" x2="627.312" y2="495.077" gradientUnits="userSpaceOnUse">
<stop stop-color="#036D93" stop-opacity="0"/>
<stop offset="1" stop-color="#002858"/>
</linearGradient>
<linearGradient id="paint246_linear" x1="220.135" y1="501.096" x2="252.41" y2="523.736" gradientUnits="userSpaceOnUse">
<stop stop-color="#0091C6"/>
<stop offset="1" stop-color="#0091C6" stop-opacity="0"/>
</linearGradient>
<radialGradient id="paint247_radial" cx="0" cy="0" r="1" gradientUnits="userSpaceOnUse" gradientTransform="translate(270.591 410.221) scale(104.067)">
<stop stop-color="#0091C6"/>
<stop offset="1" stop-color="#0091C6" stop-opacity="0"/>
</radialGradient>
</defs>
</svg>
