<svg width="154" height="125" viewBox="0 0 154 125" fill="none" xmlns="http://www.w3.org/2000/svg">
<path d="M139.829 44.6694C139.927 45.2658 139.836 45.8782 139.569 46.4189L132 61.737L154 84V12L137.241 28.9592L139.829 44.6694Z" fill="#014E78"/>
<path d="M127.072 99.3888L145.589 110L154 105.783V91.6673L126.496 64.0854C126.076 63.6638 125.798 63.1201 125.703 62.5314C125.608 61.9427 125.699 61.3388 125.965 60.8053L134.053 44.5834L131.371 28.4464C131.297 28.0002 131.33 27.5429 131.468 27.1122C131.606 26.6815 131.844 26.29 132.162 25.9701L154 4.07102V0L120 4.87088V101.2L124.551 99.2442C124.954 99.0711 125.391 98.994 125.828 99.0191C126.266 99.0442 126.692 99.1707 127.072 99.3888V99.3888Z" fill="#014E78"/>
<path d="M154 112.436L146.767 116.228C146.35 116.447 145.888 116.554 145.421 116.54C144.955 116.527 144.499 116.393 144.094 116.15L125.486 105L120 107.466V125L154 119.907V112.436Z" fill="#014E78"/>
<path d="M34 112.964L26.7672 116.596C26.0951 116.934 25.3171 116.99 24.6042 116.751C23.8913 116.512 23.302 115.999 22.9659 115.324L14.4659 98.2473C14.1982 97.7092 14.1068 97.0999 14.2049 96.5065L16.7988 80.8746L0 64V120.121L34 125V112.964Z" fill="#014E78"/>
<path d="M100 122.867L114 125V110L107.378 113.027L100 122.867Z" fill="#014E78"/>
<path d="M22.6284 79.9113L19.946 96.195L26.7672 110L34 106.34V27.4455L25.4107 22.4788L15.4339 27.5269C15.0404 27.726 14.6066 27.8297 14.1667 27.8297C13.7268 27.8297 13.2929 27.726 12.8995 27.5269L0 21V55.3143L21.8369 77.4125C22.1556 77.7353 22.3937 78.1304 22.5313 78.565C22.669 78.9995 22.7023 79.4611 22.6284 79.9113V79.9113Z" fill="#014E78"/>
<path d="M105 3.55642L80 0V6.21807L93.6205 13L105 3.55642Z" fill="#014E78"/>
<path d="M63.7313 20.2169L74 7.18216V0L40 4.93221V24.6071L45.8473 28L63.7313 20.2169Z" fill="#014E78"/>
<path d="M49.5356 99.6039C49.9052 99.7505 50.2401 99.9739 50.5187 100.26C50.7973 100.545 51.0133 100.887 51.1527 101.262L58.8534 122L74 119.815V91.8589C70.7098 87.8151 57 70.1438 57 56.4855C57.0063 51.6712 58.7271 47.0197 61.8482 43.3806C64.9693 39.7414 69.2825 37.3574 74 36.6639V16L67.7125 23.9377C67.4207 24.3054 67.0436 24.5947 66.6146 24.78L46.7812 33.3641C46.3784 33.5384 45.941 33.616 45.5034 33.5908C45.0659 33.5655 44.6401 33.4381 44.2596 33.2185L40 30.7588V103.36L47.2328 99.708C47.588 99.5286 47.9765 99.4267 48.3732 99.4087C48.7699 99.3908 49.166 99.4573 49.5356 99.6039V99.6039Z" fill="#014E78"/>
<path d="M46.8944 106L40 109.611V125L53 123.055L46.8944 106Z" fill="#014E78"/>
<path d="M63 56.2817C63 66.4131 72.6194 80.2331 77 86C81.3802 80.2331 91 66.4131 91 56.2817C91 52.4939 89.525 48.8613 86.8995 46.183C84.274 43.5047 80.713 42 77 42C73.287 42 69.726 43.5047 67.1005 46.183C64.475 48.8613 63 52.4939 63 56.2817ZM77 47.7127C78.6614 47.7127 80.2854 48.2152 81.6668 49.1568C83.0482 50.0984 84.1248 51.4367 84.7606 53.0024C85.3964 54.5682 85.5627 56.2912 85.2386 57.9534C84.9145 59.6156 84.1145 61.1425 82.9397 62.3408C81.7649 63.5392 80.2682 64.3554 78.6388 64.686C77.0093 65.0166 75.3204 64.8469 73.7855 64.1984C72.2506 63.5498 70.9387 62.4515 70.0157 61.0423C69.0926 59.6332 68.6 57.9764 68.6 56.2817C68.6025 54.0098 69.4883 51.8317 71.0631 50.2253C72.6378 48.6188 74.7729 47.7152 77 47.7127V47.7127Z" fill="#014E78"/>
<path d="M97 56.9212C97 70.5458 83.2902 88.1748 80 92.2064V120.092L93.2558 122L103.288 109.367C103.579 109.001 103.956 108.712 104.385 108.527L114 104.376V5.16662L112.842 5L95.9804 19.1551C95.5571 19.5104 95.0402 19.7336 94.493 19.7976C93.9457 19.8615 93.3918 19.7633 92.8991 19.5151L80 13.0178V37.1491C84.7175 37.8408 89.0307 40.2189 92.1518 43.849C95.2729 47.479 96.9937 52.1189 97 56.9212V56.9212Z" fill="#014E78"/>
<path d="M24.2328 16.9437C24.65 16.7341 25.1122 16.6312 25.5785 16.6442C26.0448 16.6572 26.5007 16.7856 26.9057 17.018L34 21.0906V4.87948L0 0V14.8839L14.1667 22L24.2328 16.9437Z" fill="#014E78"/>
<path d="M77 59C78.6569 59 80 57.8807 80 56.5C80 55.1193 78.6569 54 77 54C75.3431 54 74 55.1193 74 56.5C74 57.8807 75.3431 59 77 59Z" fill="#014E78"/>
</svg>
